<svg width="16" height="16" viewBox="0 0 16 16" fill="none" xmlns="http://www.w3.org/2000/svg">
<path d="M7.33331 12H8.66665V10.6667H7.33331V12ZM7.99998 1.33333C4.31998 1.33333 1.33331 4.32 1.33331 8C1.33331 11.68 4.31998 14.6667 7.99998 14.6667C11.68 14.6667 14.6666 11.68 14.6666 8C14.6666 4.32 11.68 1.33333 7.99998 1.33333ZM7.99998 13.3333C5.05998 13.3333 2.66665 10.94 2.66665 8C2.66665 5.06 5.05998 2.66667 7.99998 2.66667C10.94 2.66667 13.3333 5.06 13.3333 8C13.3333 10.94 10.94 13.3333 7.99998 13.3333ZM7.99998 4C6.52665 4 5.33331 5.19333 5.33331 6.66667H6.66665C6.66665 5.93333 7.26665 5.33333 7.99998 5.33333C8.73331 5.33333 9.33331 5.93333 9.33331 6.66667C9.33331 8 7.33331 7.83333 7.33331 10H8.66665C8.66665 8.5 10.6666 8.33333 10.6666 6.66667C10.6666 5.19333 9.47331 4 7.99998 4Z" fill="black"/>
</svg>
