<?xml version="1.0" encoding="UTF-8" standalone="no"?>
<svg
   xmlns:dc="http://purl.org/dc/elements/1.1/"
   xmlns:cc="http://creativecommons.org/ns#"
   xmlns:rdf="http://www.w3.org/1999/02/22-rdf-syntax-ns#"
   xmlns:svg="http://www.w3.org/2000/svg"
   xmlns="http://www.w3.org/2000/svg"
   xmlns:xlink="http://www.w3.org/1999/xlink"
   xmlns:sodipodi="http://sodipodi.sourceforge.net/DTD/sodipodi-0.dtd"
   xmlns:inkscape="http://www.inkscape.org/namespaces/inkscape"
   inkscape:version="1.0 (4035a4fb49, 2020-05-01)"
   sodipodi:docname="largeIcons.svg"
   id="svg746"
   version="1.1"
   width="252"
   height="216">
  <metadata
     id="metadata752">
    <rdf:RDF>
      <cc:Work
         rdf:about="">
        <dc:format>image/svg+xml</dc:format>
        <dc:type
           rdf:resource="http://purl.org/dc/dcmitype/StillImage" />
      </cc:Work>
    </rdf:RDF>
  </metadata>
  <defs
     id="defs750" />
  <sodipodi:namedview
     inkscape:current-layer="svg746"
     inkscape:window-maximized="1"
     inkscape:window-y="-8"
     inkscape:window-x="3832"
     inkscape:cy="108"
     inkscape:cx="126"
     inkscape:zoom="4.1898148"
     showguides="false"
     showgrid="false"
     id="namedview748"
     inkscape:window-height="1137"
     inkscape:window-width="1920"
     inkscape:pageshadow="2"
     inkscape:pageopacity="0"
     guidetolerance="10"
     gridtolerance="10"
     objecttolerance="10"
     borderopacity="1"
     bordercolor="#666666"
     pagecolor="#ffffff" />
  <g
     id="g390"
     transform="translate(-322 -72)">
    <circle
       id="circle382"
       fill="#009802"
       r="3"
       cy="17"
       cx="15"
       transform="translate(326 74)" />
    <path
       id="path384"
       fill="none"
       d="M329 77h18v18h-18z" />
    <path
       id="path386"
       fill="none"
       d="M327.25 75.25h20v20h-20z" />
    <path
       id="path388"
       fill="none"
       d="M325.12 73.125h20v20h-20z" />
  </g>
  <path
     id="path392"
     d="M14.767 31h-1.534v4.233H9v1.534h4.233V41h1.534v-4.233H19v-1.534h-4.233z" />
  <path
     id="path394"
     fill="none"
     d="M33 27h18v18H33z" />
  <path
     id="path396"
     d="M45.42 33.7l-6.705-6.705-1.058 1.057 1.786 1.785L35.58 33.7a1.118 1.118 0 000 1.59l4.125 4.125c.218.217.51.33.795.33.285 0 .578-.113.795-.33l4.125-4.125a1.118 1.118 0 000-1.59zm-8.512.795l3.592-3.593 3.592 3.593zm10.341 1.125s-1.5 1.627-1.5 2.625c0 .825.675 1.5 1.5 1.5s1.5-.675 1.5-1.5c0-.998-1.5-2.625-1.5-2.625z" />
  <path
     id="path398"
     fill-opacity=".36"
     d="M33 42h18v3H33z" />
  <path
     id="path400"
     fill="none"
     d="M7 51h18v18H7z" />
  <path
     id="path402"
     fill-opacity=".36"
     d="M20 56h1.494c.832 0 1.506.672 1.506 1.506v7.987c0 .832-.672 1.507-1.506 1.507h-7.987A1.505 1.505 0 0112 65.493V64h6.494c.835 0 1.506-.675 1.506-1.507V56z" />
  <path
     id="path404"
     fill="#212121"
     d="M10.5 53c-.831 0-1.5.669-1.5 1.5v8c0 .831.669 1.5 1.5 1.5h8c.831 0 1.5-.669 1.5-1.5v-8c0-.831-.669-1.5-1.5-1.5zm0 1.5h8v8h-8z" />
  <path
     id="path406"
     stroke-width="2"
     stroke="#000"
     stroke-miterlimit="4.2"
     d="M37 57h8v6h-8z" />
  <path
     id="path408"
     d="M45 60l4-4v8" />
  <g
     id="g414"
     stroke="#000">
    <path
       id="path410"
       stroke-width="1.00008"
       fill-rule="evenodd"
       d="M70.58 12.5a1.08 1.08 0 11-2.16 0 1.08 1.08 0 112.16 0z" />
    <path
       id="path412"
       d="M69.48 9.5l2.54-2h-1.524v-2h-2l-.016 2h-1.54zM72.5 12.5l2 2.5v-1.5h2v-2h-2V10zM69.5 15.5l-2.5 2h1.5v2h2v-2H72zM66.5 12.5l-2-2.5v1.5h-2v2h2V15z" />
  </g>
  <g
     id="g420"
     fill-rule="evenodd">
    <path
       id="path416"
       fill="none"
       d="M60.308 28.525H76.54v16.232H60.308z" />
    <path
       id="path418"
       d="M64.072 36.049l-1.275 1.275 3.826 3.825 7.652-7.651L73 32.222 66.623 38.6z" />
  </g>
  <path
     id="path422"
     d="M65.94 56l-.94.94L68.053 60 65 63.06l.94.94 4-4z" />
  <path
     id="path424"
     d="M69.94 56l-.94.94L72.053 60 69 63.06l.94.94 4-4zM14.44 88.94c-2.48 0-4.5-2.02-4.5-4.5 0-.88.26-1.7.69-2.39l6.2 6.2c-.69.44-1.51.69-2.39.69m4.5-4.5c0 .88-.26 1.7-.69 2.39l-6.2-6.2c.69-.44 1.51-.69 2.39-.69 2.48 0 4.5 2.02 4.5 4.5M14.5 78a6.5 6.5 0 100 13 6.5 6.5 0 000-13" />
  <g
     id="g430"
     fill-rule="evenodd">
    <path
       id="path426"
       fill="none"
       d="M32.071 76.568h15.688v15.688H32.07z" />
    <path
       id="path428"
       d="M42.53 79.618a1.312 1.312 0 00-1.313-1.307h-5.219c-.723 0-1.312.587-1.312 1.313v6.961c0 .725.584 1.31 1.307 1.313v-8.28zm-5.23 2.62c0-.725.59-1.312 1.313-1.312h5.218c.726 0 1.313.585 1.313 1.312V89.2c0 .725-.59 1.312-1.313 1.312h-5.218A1.312 1.312 0 0137.3 89.2zm1.307-.005h5.23v6.972h-5.23z" />
  </g>
  <path
     id="path432"
     d="M103 8.33L101.67 7 98 10.67 94.33 7 93 8.33 96.67 12 93 15.67 94.33 17 98 13.33l3.67 3.67 1.33-1.33L99.33 12zM103 37H93v-5h10zm-12 5h14V30H91zM96 64h7v-8h-7zm9 2H91V54h14zM100 88h-7v-8h7zm-9 2h14V78H91zM7 112.089v2.91h2.91l8.284-8.283-2.91-2.91zm13.769-7.939a.771.771 0 000-1.1l-1.82-1.82a.771.771 0 00-1.1 0l-1.52 1.53 2.91 2.91 1.53-1.52zM48.77 103.04l-1.816-1.816a.78.78 0 00-1.1 0l-2.43 2.43-1.49-1.493-1.1 1.1 1.104 1.105L35 111.301v3.695h3.694l6.938-6.939 1.1 1.105 1.1-1.1-1.492-1.494 2.43-2.431a.768.768 0 000-1.097zm-10.721 10.4l-1.493-1.493 6.272-6.274 1.493 1.493-6.272 6.274z" />
  <path
     id="path434"
     fill="#424242"
     opacity=".5"
     d="M66 107l2 3v4h4v-4l2-3z" />
  <path
     id="path436"
     d="M68.5 113.23c.32.13.84.24 1.47.24.59 0 1.14-.1 1.53-.26v-3.93l4-4.57v-.19h-11v.22l4 4.57v3.93zm1.47 1.77c-1.16-.09-2.15-.29-2.97-.99v-4.12l-4-4.57V103h14v2.35l-4 4.57v4.13c-.92.67-2.1.94-3.03.95" />
  <path
     id="path438"
     fill="none"
     d="M89 99h18v18H89z" />
  <path
     id="path440"
     fill-opacity=".36"
     d="M89 114h18v3H89z" />
  <path
     id="path442"
     d="M97.25 101.25l-4.125 10.5h1.688l.84-2.25h4.687l.84 2.25h1.688l-4.118-10.5zM96.215 108L98 103.252 99.785 108z" />
  <path
     id="path444"
     stroke="#000"
     fill="none"
     d="M120.5 19.5v-14h12v14z" />
  <path
     id="path446"
     d="M126.5 13l-3.25-5h6.5M120 16v-1h13v1z" />
  <path
     id="path448"
     stroke="#000"
     fill="none"
     d="M119.5 30.5h14v12h-14z" />
  <path
     id="path450"
     d="M126 36.5l5-3.25v6.5M123 30h1v13h-1z" />
  <path
     id="path452"
     stroke="#000"
     fill="none"
     d="M133.5 54.5h-14v12h14z" />
  <path
     id="path454"
     d="M127 60.5l-5-3.25v6.5M130 54h-1v13h1z" />
  <path
     id="path456"
     stroke="#000"
     fill="none"
     d="M120.5 77.5v14h12v-14z" />
  <path
     id="path458"
     d="M126.5 84l-3.25 5h6.5M120 81v1h13v-1zM123 107h-4v-4h4zM133 105h-9v-2h9zM133 107h-9v-1h9zM133 111h-9v-2h9zM123 113h-4v-4h4zM133 113h-9v-1h9zM21 133h-2v2h2zM21 137h-2v2c1 0 2-1 2-2zM21 129h-2v2h2zM19 125v2h2c0-1-1-2-2-2zM9 139h4v-6H7v4c0 1.1.9 2 2 2zM9 129H7v2h2zM17 125h-2v2h2zM17 137h-2v2h2zM9 125c-1 0-2 1-2 2h2zM13 125h-2v2h2zM53 143v-5l-5 5z" />
  <g
     id="g462"
     fill-rule="evenodd">
    <path
       id="path460"
       d="M71.989 127.5a1.5 1.5 0 11-3 0 1.5 1.5 0 113 0zM71.989 132.5a1.5 1.5 0 11-3 0 1.5 1.5 0 113 0zM71.989 137.5a1.5 1.5 0 11-3 0 1.5 1.5 0 113 0z" />
  </g>
  <path
     id="path464"
     fill="none"
     d="M88 123h18v18H88z" />
  <path
     id="path466"
     d="M103.52 130.53a5.625 5.625 0 00-5.516-4.526 5.63 5.63 0 00-4.988 3.026 4.499 4.499 0 00.487 8.974h9.75c2.07 0 3.75-1.68 3.75-3.75 0-1.98-1.54-3.585-3.483-3.724zm-.266 5.974h-9.75a3 3 0 110-6h.532a4.127 4.127 0 013.968-3 4.123 4.123 0 014.125 4.125v.375h1.125a2.252 2.252 0 012.25 2.25 2.252 2.252 0 01-2.25 2.25zM121 124c-.55 0-.99.45-.99 1l-.01 14c0 .55.44 1 1 1h10c.55 0 1-.45 1-1v-10l-5-5zm6 5v-4l4 4z" />
  <path
     id="path468"
     fill="none"
     d="M117 123h18v18h-18zM147 5h18v18h-18z" />
  <path
     id="path470"
     fill="none"
     d="M145.25 3.25h20v20h-20z" />
  <path
     id="path472"
     fill="none"
     d="M143.12 1.125h20v20h-20z" />
  <path
     id="path474"
     d="M149 4c-.55 0-1 .45-1 1v14c0 .55.44 1 1 1h5.094a5.022 5.022 0 01-.094-1 5 5 0 015-5c.343 0 .677.028 1 .094V9l-5-5h-6zm6 1l4 4h-4z" />
  <path
     id="path476"
     fill="none"
     d="M145 28h18v18h-18z" />
  <path
     id="path478"
     d="M156 33l-2-2h-5c-.55 0-1 .45-1 1v10c0 .55.45 1 1 1h12c.55 0 1-.45 1-1v-8c0-.55-.45-1-1-1z" />
  <path
     id="path480"
     fill="#010101"
     d="M160 54h-10.5a1.5 1.5 0 00-1.5 1.5v9a1.5 1.5 0 001.5 1.5H160c.825 0 1.5-.675 1.5-1.5v-9A1.5 1.5 0 00160 54zm0 10.5h-10.5V57H160z" />
  <path
     id="path482"
     fill="none"
     d="M144.97 51.07h18v18h-18z" />
  <path
     id="path484"
     d="M155 76.9h-5.005c-.54 0-.995.45-.995 1.007v11.986a1 1 0 00.995 1.007h8.01c.54 0 .995-.451.995-1.007V80.9l-4-4zm3 4h-3v-3zm-6 2l5 2.5-5 2.5z" />
  <g
     id="g490"
     stroke="#000">
    <path
       id="path486"
       stroke-width=".72907"
       d="M151.343 105.675l-.712.23-.015.975.024.065.37.724-.882.641-.575-.577-.053-.041-.932-.287-.44.605.56.797.057.039.727.367-.338 1.039-.805-.129-.067-.003-.923.315v.75l.923.316.067-.003.805-.13.338 1.038-.727.369-.056.037-.562.798.44.605.933-.287.053-.043.575-.576.883.64-.372.727-.023.062.015.976.712.23.586-.778.018-.066.125-.805h1.092l.126.805.018.066.585.778.713-.23.014-.976-.022-.062-.372-.727.883-.64.575.576.052.043.933.287.44-.605-.562-.798-.055-.037-.726-.369.336-1.038.805.13.067.003.923-.317v-.749l-.923-.315-.067.003-.805.129-.336-1.039.726-.367.055-.039.562-.797-.44-.605-.933.288-.052.041-.575.577-.883-.641.372-.725.022-.064-.014-.975-.713-.23-.585.78-.018.064-.126.805h-1.092l-.125-.806-.02-.067-.584-.777m1.275 2.477a2.64 2.657 0 012.64 2.657 2.64 2.657 0 01-2.64 2.659 2.64 2.657 0 01-2.639-2.659 2.64 2.657 0 012.639-2.657z" />
    <path
       id="path488"
       stroke-width=".65543393"
       d="M156.08 100.757l-.516.287.136.935.023.029.542.554-.428.722-.746-.214-.037-.005-.887.323-.009.589.879.35.037-.005.751-.193.411.73-.56.541-.023.028-.16.931.503.302.74-.585.015-.035.214-.747.833.012.19.752.012.035.725.607.514-.288-.138-.933-.022-.03-.54-.558.427-.717.747.212.037.007.89-.325.007-.59-.88-.348-.037.004-.752.193-.408-.731.56-.54.022-.028.162-.932-.507-.302-.742.586-.014.036-.209.745-.833-.01-.193-.753-.012-.035zm1.322 1.558a1.413 1.413 0 011.413 1.413 1.413 1.413 0 01-1.413 1.412 1.413 1.413 0 01-1.412-1.412 1.413 1.413 0 011.412-1.413z" />
  </g>
  <g
     id="g496"
     fill="none">
    <path
       id="path492"
       opacity=".5"
       d="M146 124h16v16h-16z" />
    <path
       id="path494"
       fill="#000"
       d="M152 138h-2.5c-1 0-1.5-.5-1.5-1.5v-9c0-1 .5-1.5 1.5-1.5h9c1.5 0 1.5 1.468 1.5 1.5v2.5h-1v-3h-10v10h3zm9-5l-3 2 3 3-1 1-3-3-2 3-2-8z" />
  </g>
  <path
     id="path498"
     stroke="#000"
     d="M12.5 151.5h-1l2-2 2 2h-1s-.035 4.638-.035 4.034l4.035-.034v-1l2 2-2 2v-1l-4.035-.034.035 4.035h1l-2 2-2-2h1l.034-4.035-4.034.034v1l-2-2 2-2v1l4.034.034z" />
  <path
     id="path500"
     d="M39.6 159.2h1.6v-6.4h-1.6zM42 148c-4.42 0-8 3.58-8 8s3.58 8 8 8 8-3.58 8-8-3.58-8-8-8zm0 14.4a6.408 6.408 0 01-6.4-6.4c0-3.528 2.872-6.4 6.4-6.4 3.528 0 6.4 2.872 6.4 6.4 0 3.528-2.872 6.4-6.4 6.4zm.8-3.2h1.6v-6.4h-1.6zM69 160h-3v-8h3zM75 160h-3v-8h3zM101 159h-2v-6h2zm-4 0h-2v-6h2zm4-10h-6l-4 4v6l4 4h6l4-4.12V153z" />
  <g
     id="g506"
     font-family="Sans"
     font-weight="400">
    <path
       id="path502"
       style="line-height:normal;text-indent:0;text-transform:none"
       overflow="visible"
       d="M121 149v5l3.343.531-.015 8.047L123 163c.006.593.44 1.011 1 1h8c.579.002.982-.427 1-1v-14c-.01-.535-.482-.997-1-1h-10a1.026 1.026 0 00-1 1zm1 0h10v14h-8l.718-.422.094-8.422L122 154v-1z" />
    <path
       id="path504"
       style="line-height:normal;text-indent:0;text-transform:none"
       overflow="visible"
       d="M118 154v9c.006.593.44 1.011 1 1h5c.579.002.982-.427 1-1v-9c-.01-.535-.482-.997-1-1h-5a1.026 1.026 0 00-1 1zm1 1h5v7h-5z" />
  </g>
  <path
     id="path508"
     d="M146 156c0 4.42 3.58 8 8 8s8-3.58 8-8-3.58-8-8-8-8 3.58-8 8zm8 6.4a6.408 6.408 0 01-6.4-6.4c0-3.528 2.872-6.4 6.4-6.4 3.528 0 6.4 2.872 6.4 6.4 0 3.528-2.872 6.4-6.4 6.4zm-1.493-2.971l4.571-3.429-4.571-3.429v6.857zM10 180l10-5v10M48 180l-10-5v10M66.01 179.99c.61.28 1.07.9 1.07 1.58.11.85-.05 1.72.12 2.57.27.54 1 .28 1.43.55.49.24.48 1.01-.06 1.18-.56.22-1.18.08-1.74-.05-.71-.2-1.41-.72-1.5-1.5-.18-.89.01-1.8-.16-2.68-.22-.64-.94-.9-1.57-.93-.58-.1-.83-.94-.35-1.3.51-.35 1.26-.14 1.69-.66.44-.48.29-1.18.32-1.78 0-.81-.02-1.77.65-2.34.66-.54 1.58-.71 2.41-.63.63 0 .98.87.4 1.22-.44.37-1.2.06-1.51.65-.14.56-.05 1.15-.07 1.73-.01.75-.05 1.64-.72 2.13-.12.1-.26.19-.4.26M74.98 179.99c-.67-.3-1.08-1.02-1.08-1.75-.07-.76.03-1.52-.06-2.28-.24-.58-.98-.4-1.46-.59-.59-.24-.48-1.18.14-1.31.73-.15 1.52-.01 2.18.32.56.28.95.86.99 1.48.13.83-.03 1.68.13 2.5.2.68.94.83 1.54.9.56.07.86.8.46 1.21-.44.46-1.2.2-1.65.66-.51.46-.4 1.21-.4 1.83-.03.78.06 1.69-.52 2.3-.74.65-1.8.86-2.75.68-.52-.16-.69-1.01-.15-1.25.44-.23 1.02-.08 1.41-.45.26-.45.09-.98.14-1.47.01-.76-.07-1.63.43-2.26.18-.21.42-.37.66-.51" />
  <path
     id="path510"
     fill="none"
     d="M82 168h24v24H82z" />
  <path
     id="path512"
     d="M98 174c-3.31 0-6 2.69-6 6s2.69 6 6 6 6-2.69 6-6h-2a4 4 0 11-4-4c1.276 0 2.393.601 3.125 1.531h2.344A6.004 6.004 0 0098 174z" />
  <path
     id="path514"
     stroke-width="1.068"
     stroke="#000"
     d="M103.091 174.88v3.092h-3.092z" />
  <path
     id="path516"
     d="M120.586 185.891a7.978 7.978 0 01-2.586-5.89c0-4.42 3.58-8 8-8s8 3.58 8 8-3.58 8-8 8v-1.6c3.528 0 6.4-2.873 6.4-6.4 0-3.529-2.872-6.4-6.4-6.4a6.408 6.408 0 00-6.4 6.4c0 1.935.865 3.673 2.228 4.848l1.692-1.42.015 4.463-4.392-.79 1.443-1.21zm3.92-2.462l4.572-3.429-4.571-3.429v6.858zM161 180l-8-5v10M151 185h-3v-10h3zM175.2 10.15c.055-.113.153-.22.231-.306.546-.608 1.39-1.198 3.006-1.57V6.101c-1.294.252-2.315.669-3.304 1.56-.333.383-.506.624-.514 1.166-.007.443.177.886.581 1.322zm6.63 3.13c-1.616-.025-3.108-.257-4.622-.765-2.694-.903-3.029-2.17-3.17-2.593-.096 1.69.028 2.957.034 3.065.092 1.5 1.292 2.674 2.158 3.115a12.806 12.806 0 005.6 1.415v2.484l3.252-4.648-3.251-4.649zm-.322-5.297c1.616.01 3.453.339 5.245 1.113.735.318 1.328.79 1.808 1.305.332-.152.807-.73.741-1.292-.161-1.388-1.626-2.191-1.88-2.305-1.77-.79-3.975-1.035-5.914-1.058V4l-2.014 2.879 2.014 2.878V7.983zm8.423 1.866c-.082.648-.827 2.035-3.898 2.914v4.525c1.132-.368 2.465-1.296 3.18-2.2.29-.367.468-.874.576-1.241.333-1.123.187-3.314.142-3.998zM184.624 30.47a6.127 6.127 0 013.497 4.947H189C188.7 31.823 185.684 29 182 29l-.387.018 2.232 2.222.779-.77zm-3.661-.45a.876.876 0 00-1.242 0l-3.725 3.71a.867.867 0 000 1.238l7.04 7.011a.876.876 0 001.242 0l3.726-3.71a.867.867 0 000-1.236zm2.694 11.34l-7.04-7.01 3.725-3.71 7.041 7.01zm-4.282.17a6.119 6.119 0 01-3.497-4.947H175c.298 3.594 3.315 6.417 7 6.417l.386-.018-2.231-2.222-.78.77z" />
  <path
     id="path518"
     fill="none"
     d="M171.96 50.013h20v20h-20z" />
  <path
     id="path520"
     fill="none"
     d="M175 53h18v18h-18z" />
  <path
     id="path522"
     fill="none"
     d="M173.25 51.25h20v20h-20z" />
  <path
     id="path524"
     fill="none"
     d="M171.12 49.125h20v20h-20z" />
  <path
     id="path526"
     fill="none"
     d="M166 48h24v24h-24z" />
  <path
     id="path528"
     d="M187.35 60.686c.029-.224.05-.448.05-.686 0-.238-.021-.462-.05-.686l1.518-1.155a.347.347 0 00.087-.448l-1.44-2.422a.367.367 0 00-.439-.154l-1.791.7a5.295 5.295 0 00-1.217-.686l-.273-1.855a.348.348 0 00-.353-.294h-2.878a.348.348 0 00-.353.294l-.273 1.855a5.568 5.568 0 00-1.216.686l-1.792-.7a.356.356 0 00-.44.154l-1.439 2.422a.339.339 0 00.087.448l1.518 1.155c-.029.224-.05.455-.05.686 0 .231.021.462.05.686l-1.518 1.155a.347.347 0 00-.087.448l1.44 2.422c.086.154.28.21.439.154l1.792-.7c.374.28.777.511 1.216.686l.273 1.855a.348.348 0 00.353.294h2.878c.18 0 .331-.126.353-.294l.273-1.855a5.568 5.568 0 001.217-.686l1.792.7c.165.063.352 0 .438-.154l1.44-2.422a.347.347 0 00-.087-.448l-1.518-1.155zm-5.347 1.764c-1.389 0-2.519-1.099-2.519-2.45 0-1.351 1.13-2.45 2.52-2.45 1.388 0 2.518 1.099 2.518 2.45 0 1.351-1.13 2.45-2.519 2.45z" />
  <path
     id="path530"
     stroke="#000"
     fill="none"
     d="M176.5 91.5v-14h12v14z" />
  <path
     id="path532"
     d="M182.5 80l-3.25 5h6.5M176 88v-1h13v1z" />
  <g
     id="g538">
    <path
       id="path534"
       stroke="#000"
       fill="none"
       d="M174.5 102.5h14v12h-14z" />
    <path
       id="path536"
       d="M186 108.5l-5-3.25v6.5M178 102h1v13h-1z" />
  </g>
  <g
     id="g544">
    <path
       id="path540"
       stroke="#000"
       fill="none"
       d="M188.5 126.5h-14v12h14z" />
    <path
       id="path542"
       d="M177 132.5l5-3.25v6.5M185 126h-1v13h1z" />
  </g>
  <g
     id="g550">
    <path
       id="path546"
       stroke="#000"
       fill="none"
       d="M176.5 149.5v14h12v-14z" />
    <path
       id="path548"
       d="M182.5 161l-3.25-5h6.5M176 153v1h13v-1z" />
  </g>
  <g
     id="g554">
    <path
       id="path552"
       d="M176 180c0 3.31 2.69 6 6 6s6-2.69 6-6-2.69-6-6-6-6 2.69-6 6" />
  </g>
  <g
     id="g558">
    <path
       id="path556"
       d="M12.5 209c0 1.1.9 2 2 2s2-.9 2-2-.9-2-2-2-2 .9-2 2M13 198v4h-3l4.5 4 4.5-4h-3v-4z" />
  </g>
  <g
     id="g562">
    <path
       id="path560"
       d="M40.5 209c0 1.1.9 2 2 2s2-.9 2-2-.9-2-2-2-2 .9-2 2M42.5 198l-4.5 4h3v4h3v-4h3z" />
  </g>
  <g
     id="g570">
    <path
       id="path564"
       d="M68 206.5c0 1.1.9 2 2 2s2-.9 2-2-.9-2-2-2-2 .9-2 2" />
    <path
       id="path566"
       stroke-width="2.5"
       stroke="#000"
       fill="none"
       d="M63.25 207.03c2.55-8.43 11.4-8.73 13.94 0" />
    <path
       id="path568"
       d="M77.68 209l-4.54-2.76 6.68-2.1" />
  </g>
  <g
     id="g584"
     transform="translate(82 192)">
    <path
       id="path572"
       fill="url(#a)"
       d="M295 36a9 9 0 1018.001-.001A9 9 0 00295 36"
       transform="translate(-288 -24)" />
    <path
       id="path574"
       d="M10 12c0 3.31 2.69 6 6 6s6-2.69 6-6-2.69-6-6-6-6 2.69-6 6" />
    <defs
       id="defs582">
      <radialGradient
         gradientUnits="userSpaceOnUse"
         gradientTransform="matrix(18 0 0 -18 680 341)"
         r="1"
         cy="0"
         cx="0"
         id="b">
        <stop
           id="stop576"
           offset="0" />
        <stop
           id="stop578"
           offset="1"
           stop-opacity="0" />
      </radialGradient>
      <radialGradient
         xlink:href="#b"
         gradientUnits="userSpaceOnUse"
         gradientTransform="matrix(9 0 0 9 304 36)"
         r="1"
         cy="0"
         cx="0"
         id="a" />
    </defs>
  </g>
  <g
     id="g592">
    <path
       id="path586"
       fill="none"
       d="M117 195h18v18h-18z" />
    <path
       id="path588"
       fill-opacity=".36"
       d="M132.25 203h.75v-3h-11v3h.75a1.5 1.5 0 011.5-1.5h2.5v7.25a1.5 1.5 0 01-1.5 1.5v.75h4.5v-.75a1.5 1.5 0 01-1.5-1.5v-7.25h2.5a1.5 1.5 0 011.5 1.5z" />
    <path
       id="path590"
       d="M129.25 200h.75v-3h-11v3h.75a1.5 1.5 0 011.5-1.5h2.5v7.25a1.5 1.5 0 01-1.5 1.5v.75h4.5v-.75a1.5 1.5 0 01-1.5-1.5v-7.25h2.5a1.5 1.5 0 011.5 1.5z" />
  </g>
  <g
     id="g596">
    <path
       id="path594"
       d="M149.5 201h9l-1.5 10h-6M157.5 198h-2v-1h-3v1h-2c-.55 0-1 .48-1 1v1h9v-1c0-.52-.45-1-1-1" />
  </g>
  <g
     id="g602">
    <path
       id="path598"
       d="M178 201h-2v9h11v-2h-9z" />
    <path
       id="path600"
       d="M181 200h7v5h-7zm-2-2v9h11v-9z" />
  </g>
  <g
     id="g606">
    <path
       id="path604"
       d="M210 6.69c-3.636 0-6.742 2.263-8 5.455 1.258 3.193 4.364 5.455 8 5.455s6.742-2.262 8-5.455c-1.258-3.192-4.364-5.454-8-5.454zm0 9.092a3.638 3.638 0 01-3.636-3.637A3.638 3.638 0 01210 8.51a3.638 3.638 0 013.636 3.636A3.638 3.638 0 01210 15.782zm0-5.818a2.179 2.179 0 00-2.182 2.181c0 1.208.975 2.182 2.182 2.182a2.179 2.179 0 002.182-2.182A2.179 2.179 0 00210 9.964z" />
  </g>
  <g
     id="g612">
    <path
       id="path608"
       opacity=".2"
       d="M219 33h-11v-2h11z" />
    <path
       id="path610"
       d="M208 33h-6v-2h6zM211 36h-6v-2h6zM216 39h-6v-2h6zM218 42h-6v-2h6z" />
  </g>
  <text
     id="text616"
     fill="#b3b3b3"
     word-spacing="0"
     letter-spacing="0"
     font-family="sans-serif"
     font-weight="400"
     y="231.559"
     x="12.356"
     style="line-height:0%"><tspan
       id="tspan614"
       font-size="12"
       style="line-height:1.25"
       y="231.559"
       x="12.356">a</tspan></text>
  <text
     id="text620"
     fill="#b3b3b3"
     word-spacing="0"
     letter-spacing="0"
     font-family="sans-serif"
     font-weight="400"
     y="231.559"
     x="40.356"
     style="line-height:0%"><tspan
       id="tspan618"
       font-size="12"
       style="line-height:1.25"
       y="231.559"
       x="40.356">b</tspan></text>
  <text
     id="text624"
     fill="#b3b3b3"
     word-spacing="0"
     letter-spacing="0"
     font-family="sans-serif"
     font-weight="400"
     y="231.559"
     x="68.356"
     style="line-height:0%"><tspan
       id="tspan622"
       font-size="12"
       style="line-height:1.25"
       y="231.559"
       x="68.356">c</tspan></text>
  <text
     id="text628"
     fill="#b3b3b3"
     word-spacing="0"
     letter-spacing="0"
     font-family="sans-serif"
     font-weight="400"
     y="231.559"
     x="96.356"
     style="line-height:0%"><tspan
       id="tspan626"
       font-size="12"
       style="line-height:1.25"
       y="231.559"
       x="96.356">d</tspan></text>
  <text
     id="text632"
     fill="#b3b3b3"
     word-spacing="0"
     letter-spacing="0"
     font-family="sans-serif"
     font-weight="400"
     y="231.559"
     x="124.356"
     style="line-height:0%"><tspan
       id="tspan630"
       font-size="12"
       style="line-height:1.25"
       y="231.559"
       x="124.356">e</tspan></text>
  <text
     id="text636"
     fill="#b3b3b3"
     word-spacing="0"
     letter-spacing="0"
     font-family="sans-serif"
     font-weight="400"
     y="231.559"
     x="152.356"
     style="line-height:0%"><tspan
       id="tspan634"
       font-size="12"
       style="line-height:1.25"
       y="231.559"
       x="152.356">f</tspan></text>
  <text
     id="text640"
     fill="#b3b3b3"
     word-spacing="0"
     letter-spacing="0"
     font-family="sans-serif"
     font-weight="400"
     y="231.559"
     x="180.356"
     style="line-height:0%"><tspan
       id="tspan638"
       font-size="12"
       style="line-height:1.25"
       y="231.559"
       x="180.356">g</tspan></text>
  <text
     id="text644"
     fill="#b3b3b3"
     word-spacing="0"
     letter-spacing="0"
     font-family="sans-serif"
     font-weight="400"
     y="231.559"
     x="208.356"
     style="line-height:0%"><tspan
       id="tspan642"
       font-size="12"
       style="line-height:1.25"
       y="231.559"
       x="208.356">h</tspan></text>
  <text
     id="text648"
     fill="#b3b3b3"
     word-spacing="0"
     letter-spacing="0"
     font-family="sans-serif"
     font-weight="400"
     y="207.559"
     x="-15.644"
     style="line-height:0%"><tspan
       id="tspan646"
       font-size="12"
       style="line-height:1.25"
       y="207.559"
       x="-15.644">1</tspan></text>
  <text
     id="text652"
     fill="#b3b3b3"
     word-spacing="0"
     letter-spacing="0"
     font-family="sans-serif"
     font-weight="400"
     y="183.559"
     x="-15.644"
     style="line-height:0%"><tspan
       id="tspan650"
       font-size="12"
       style="line-height:1.25"
       y="183.559"
       x="-15.644">2</tspan></text>
  <text
     id="text656"
     fill="#b3b3b3"
     word-spacing="0"
     letter-spacing="0"
     font-family="sans-serif"
     font-weight="400"
     y="159.559"
     x="-15.644"
     style="line-height:0%"><tspan
       id="tspan654"
       font-size="12"
       style="line-height:1.25"
       y="159.559"
       x="-15.644">3</tspan></text>
  <text
     id="text660"
     fill="#b3b3b3"
     word-spacing="0"
     letter-spacing="0"
     font-family="sans-serif"
     font-weight="400"
     y="135.559"
     x="-15.644"
     style="line-height:0%"><tspan
       id="tspan658"
       font-size="12"
       style="line-height:1.25"
       y="135.559"
       x="-15.644">4</tspan></text>
  <text
     id="text664"
     fill="#b3b3b3"
     word-spacing="0"
     letter-spacing="0"
     font-family="sans-serif"
     font-weight="400"
     y="111.559"
     x="-15.644"
     style="line-height:0%"><tspan
       id="tspan662"
       font-size="12"
       style="line-height:1.25"
       y="111.559"
       x="-15.644">5</tspan></text>
  <text
     id="text668"
     fill="#b3b3b3"
     word-spacing="0"
     letter-spacing="0"
     font-family="sans-serif"
     font-weight="400"
     y="87.559"
     x="-15.644"
     style="line-height:0%"><tspan
       id="tspan666"
       font-size="12"
       style="line-height:1.25"
       y="87.559"
       x="-15.644">6</tspan></text>
  <text
     id="text672"
     fill="#b3b3b3"
     word-spacing="0"
     letter-spacing="0"
     font-family="sans-serif"
     font-weight="400"
     y="63.559"
     x="-15.644"
     style="line-height:0%"><tspan
       id="tspan670"
       font-size="12"
       style="line-height:1.25"
       y="63.559"
       x="-15.644">7</tspan></text>
  <text
     id="text676"
     fill="#b3b3b3"
     word-spacing="0"
     letter-spacing="0"
     font-family="sans-serif"
     font-weight="400"
     y="39.559"
     x="-15.644"
     style="line-height:0%"><tspan
       id="tspan674"
       font-size="12"
       style="line-height:1.25"
       y="39.559"
       x="-15.644">8</tspan></text>
  <text
     id="text680"
     fill="#b3b3b3"
     word-spacing="0"
     letter-spacing="0"
     font-family="sans-serif"
     font-weight="400"
     y="15.559"
     x="-15.644"
     style="line-height:0%"><tspan
       id="tspan678"
       font-size="12"
       style="line-height:1.25"
       y="15.559"
       x="-15.644">9</tspan></text>
  <g
     id="g686"
     fill="none">
    <path
       id="path682"
       d="M200 50h20v20h-20z"
       fill="none" />
    <path
       id="path684"
       fill="#000"
       d="M204.343 59.343a8.004 8.004 0 0113.267 3.184l-1.455.473h-.496a6.002 6.002 0 00-9.902-2.243L208 63h-6v-6z" />
  </g>
  <path
     id="path688"
     d="M215 82h-3v-4h-4v4h-3l5 6zm-10 7v1h10v-1z" />
  <path
     id="path690"
     fill="none"
     d="M196 72h24v24h-24z" />
  <path
     id="path692"
     d="M210 102l-5 6h3v4h4v-4h3zm-5 11v1h10v-1zM206 176h8v8h-8z" />
  <g
     id="g698">
    <path
       id="path694"
       d="M212.857 134.628h-.62l-.22-.212a5.083 5.083 0 001.233-3.322 5.106 5.106 0 10-5.106 5.105 5.083 5.083 0 003.323-1.233l.212.22v.62l3.927 3.92 1.17-1.17zm-4.713 0a3.53 3.53 0 01-3.534-3.534 3.53 3.53 0 013.534-3.535 3.53 3.53 0 013.535 3.535 3.53 3.53 0 01-3.535 3.534z" />
    <path
       id="path696"
       fill="none"
       d="M200.682 123.632h18.852v18.851h-18.852z" />
  </g>
  <path
     id="path700"
     d="M211.72 203.423c0 1.1.9 2 2 2s2-.9 2-2-.9-2-2-2-2 .9-2 2" />
  <g
     id="g704">
    <path
       id="path702"
       d="M211 203.5l-4-4.5v3h-4v3h4v3z" />
  </g>
  <g
     id="g712"
     fill="none">
    <path
       id="path706"
       fill-rule="evenodd"
       fill="#f29900"
       clip-rule="evenodd"
       d="M203.498 150.505c-.218.428-.218.988-.218 2.108v5.6a104.578 104.578 0 000 .45v5.146c0 .223.269.335.426.177l2.574-2.573h7.8c1.12 0 1.68 0 2.108-.218a2 2 0 00.874-.874c.218-.428.218-.988.218-2.108v-5.6c0-1.12 0-1.68-.218-2.108a2 2 0 00-.874-.874c-.428-.218-.988-.218-2.108-.218h-7.6c-1.12 0-1.68 0-2.108.218a2 2 0 00-.874.874z" />
    <path
       id="path708"
       fill-rule="evenodd"
       fill="#fff"
       clip-rule="evenodd"
       d="M211.28 151.413h-2v4.5h2zm0 6h-2v2h2z" />
    <path
       id="path710"
       transform="translate(200.28 146.413)"
       d="M9 5v-.5h-.5V5zm2 0h.5v-.5H11zM9 9.5h-.5v.5H9zm2 0v.5h.5v-.5zM9 11v-.5h-.5v.5zm2 0h.5v-.5H11zm-2 2h-.5v.5H9zm2 0v.5h.5V13zM9 5.5h2v-1H9zm.5 4V5h-1v4.5zM11 9H9v1h2zm-.5-4v4.5h1V5zM9 11.5h2v-1H9zm.5 1.5v-2h-1v2zm1.5-.5H9v1h2zm-.5-1.5v2h1v-2z"
       mask="url(#path-4-outside-2)" />
  </g>
  <g
     id="g718"
     stroke="#1a73e8"
     fill="none"
     transform="translate(229.966 195.644)">
    <circle
       id="circle714"
       cx="8"
       cy="8"
       r="6.5" />
    <path
       id="path716"
       d="M4 8h7.5m0 0l-4-4m4 4l-4 4" />
  </g>
  <text
     id="text722"
     fill="#b3b3b3"
     word-spacing="0"
     letter-spacing="0"
     font-family="sans-serif"
     font-weight="400"
     y="231.559"
     x="234.898"
     style="line-height:0%"><tspan
       id="tspan720"
       font-size="12"
       style="line-height:1.25"
       y="231.559"
       x="234.898">i</tspan></text>
  <text
     id="text726"
     fill="#b3b3b3"
     word-spacing="0"
     letter-spacing="0"
     font-family="sans-serif"
     font-weight="400"
     y="15.559"
     x="-15.644"
     style="line-height:0%"><tspan
       id="tspan724"
       font-size="12"
       style="line-height:1.25"
       y="15.559"
       x="-15.644">9</tspan></text>
  <path
     id="path728"
     d="M245.885 174.203v10.688a1.504 1.504 0 01-.914 1.383 1.472 1.472 0 01-.586.117h-.102a.46.46 0 01-.11-.016l-3.86-.547a7.801 7.801 0 01-.506-.086 13.884 13.884 0 00-.906-.156 3.795 3.795 0 00-.516-.031 4.56 4.56 0 00-.97.093 64.34 64.34 0 01-.444.094 7.52 7.52 0 01-.516.086l-3.86.547a.722.722 0 01-.1.008.88.88 0 00-.11.008 1.505 1.505 0 01-1.383-.914 1.472 1.472 0 01-.117-.586v-10.688a1.505 1.505 0 01.906-1.383 1.44 1.44 0 01.586-.117h.11a.44.44 0 01.109.016l3.86.547c.187.026.356.054.507.086l.453.093c.15.032.302.053.453.063l.516.03a4.56 4.56 0 00.969-.092c.146-.032.294-.06.445-.087a32.6 32.6 0 00.516-.093l3.86-.547a.72.72 0 01.1-.008c.032 0 .07-.003.118-.008.208 0 .4.04.578.117.177.079.336.185.476.32.14.136.248.295.32.477.074.183.113.378.118.586zm-8 10.406v-10.124l-5.43-.782h-.03a.128.128 0 01-.04-.008.48.48 0 00-.352.149.49.49 0 00-.148.36v10.687c0 .14.05.258.148.35a.534.534 0 00.36.15h.062l5.43-.781zm7 .282v-10.688c0-.14-.05-.258-.148-.351a.534.534 0 00-.36-.15h-.062l-5.43.782v10.126l5.43.78h.062c.14 0 .26-.046.36-.14a.473.473 0 00.148-.36zM238.482 159.804h-7.82v-12h12v6h-1v-5h-10v10h7.32zm7.516 2.555c.073.146.11.294.11.445a.95.95 0 01-.08.383 1.11 1.11 0 01-.21.32.922.922 0 01-.32.22 1.005 1.005 0 01-.39.077h-5.892a.95.95 0 01-.383-.078 1.103 1.103 0 01-.32-.21.922.922 0 01-.22-.32.986.986 0 01.03-.837l2.338-4.672v-1.883h-1v-1h5v1h-1v1.883zm-1.89-1.555l-1.446-2.883v-2.117h-1v2.117l-1.445 2.883h3.89zm-8.946-5.203l4.898-4.899.704.704-5.602 5.601-2.602-2.6.704-.705z" />
  <path
     id="path730"
     fill-rule="evenodd"
     clip-rule="evenodd"
     d="M242 125h-11c-.552 0-1 .407-1 1v7.628c0 .593.448 1.074 1 1.074h7.027c.039-.372.117-.732.23-1.074H231V126h11v4.434c.332-.04.668-.04 1 0V126c0-.593-.448-1-1-1zm-3.242 7c.076-.121.156-.063.242-.177V131h-5v1zm.242-5h-1v1h1zm-1 2h-1v1h1zm2-2h1v1h-1zm1 3v-1h-2v1zm-5-3h1v1h-1zm0 2h-1v1h1zm-4 2h1v1h-1zm0-4h1v1h-1zm3 0h-1v1h1zm-3 2h2v1h-2zm7.274 4.773c-.184.462-.277.96-.274 1.462.01.398.068.781.172 1.152.104.37.26.71.47 1.016.208.309.453.58.735.816.281.235.597.419.946.554l.336-1.009a2.246 2.246 0 01-.688-.394c-.2-.17-.375-.367-.524-.589a2.645 2.645 0 01-.344-.73 2.786 2.786 0 01-.103-.811c-.012-.365.05-.728.181-1.064a2.61 2.61 0 011.33-1.43c.314-.135.65-.2.989-.192.344 0 .65.053.958.194.308.14.574.333.798.58.224.247.401.532.532.856.13.326.212.686.212 1.056-.01.414-.107.82-.283 1.189-.163.377-.41.706-.717.96v-1.615h-1.003V139H246v-1.075h-1.072c.34-.36.6-.77.783-1.236.182-.465.289-.94.289-1.45a4.001 4.001 0 00-.29-1.475 3.605 3.605 0 00-1.86-1.99 3.14 3.14 0 00-1.35-.295c-.48 0-.945.098-1.373.294a3.423 3.423 0 00-1.11.806c-.313.343-.56.74-.743 1.194z" />
  <g
     id="g744">
    <path
       id="path732"
       d="M78.602 84l-3.64-4h-1.79l-5.57 8h7.36zM60.602 80v8h2.05l4.95-8zM63.272 92.55l-1.59-1.32 10.76-15.78 1.59 1.32z" />
    <path
       id="path734"
       fill="none"
       d="M53.602 72h24v24h-24z" />
    <path
       id="path736"
       fill="none"
       d="M53.602 72h24v24h-24zm0 0h24v24h-24zm0 0h24v24h-24zm0 0h24v24h-24z" />
    <path
       id="path738"
       fill="none"
       d="M53.602 72h24v24h-24z" />
    <path
       id="path740"
       fill="none"
       d="M53.602 72h24v24h-24z" />
    <path
       id="path742"
       fill="none"
       d="M53.602 72h24v24h-24z" />
  </g>
  <path
     style="stroke-width:0.00946122"
     d="m 235.87291,109 h -3.7123 l -0.83478,2.33333 H 230 L 233.35874,102 h 1.31603 l 2.63201,7.3099 -0.79549,1.47656 z m -0.4223,-1.16666 -1.43385,-3.99219 -1.43387,3.99219 z m 9.64415,6.1888 q 0.16694,0.3737 0.30444,0.66534 0.1375,0.29169 0.34373,0.49222 0.20625,0.2005 0.49104,0.30988 0.2848,0.10934 0.76603,0.10934 v 0.40103 h -4.40958 v -0.40103 h 0.36336 q 0.19644,0 0.38302,-0.0273 0.1866,-0.0273 0.29464,-0.15496 0.10801,-0.1276 0.11789,-0.33723 0,-0.1276 -0.0589,-0.35546 -0.0589,-0.22788 -0.15715,-0.49219 -0.0981,-0.26432 -0.20624,-0.53776 -0.108,-0.27345 -0.21605,-0.52865 -0.10801,-0.2552 -0.18661,-0.41926 -0.0786,-0.16408 -0.10802,-0.24609 h -4.39975 q -0.0296,0.0729 -0.11791,0.24609 -0.0883,0.17317 -0.19642,0.41926 -0.10801,0.24608 -0.23571,0.51953 -0.12767,0.27343 -0.22587,0.52865 -0.0981,0.25521 -0.16695,0.49219 -0.0687,0.23697 -0.0687,0.36458 0,0.21874 0.11792,0.31901 0.1179,0.10037 0.30442,0.14584 0.1866,0.0455 0.37322,0.0455 0.1866,0 0.36337,0.0184 V 116 h -3.7025 v -0.40105 q 0.48124,-0.0821 0.74641,-0.19142 0.26516,-0.10943 0.4321,-0.29165 0.16697,-0.18231 0.29461,-0.47398 0.12769,-0.29164 0.32412,-0.72004 l 3.84978,-8.42188 h 0.80534 z m -2.8579,-2.68881 -1.73828,-3.47266 -1.65976,3.47266 z"
     id="path785" />
</svg>
