<svg width="18" height="18" viewBox="0 0 18 18" fill="none" xmlns="http://www.w3.org/2000/svg">
<path d="M3.59998 13.95V12.6H4.49998V8.09999C4.49998 7.02479 4.83448 6.07169 5.50348 5.24069C6.17188 4.40969 7.03738 3.89399 8.09998 3.69359V2.69999C8.09998 2.44979 8.18758 2.23739 8.36278 2.06279C8.53738 1.88759 8.74978 1.79999 8.99998 1.79999C9.25018 1.79999 9.46258 1.88759 9.63718 2.06279C9.81238 2.23739 9.89998 2.44979 9.89998 2.69999V3.69359C10.9626 3.89399 11.8281 4.40639 12.4965 5.23079C13.1655 6.05639 13.5 7.01279 13.5 8.09999V12.6H14.4V13.95H3.59998ZM8.99998 16.2C8.62498 16.2 8.30638 16.0686 8.04418 15.8058C7.78138 15.5436 7.64998 15.225 7.64998 14.85H10.35C10.35 15.225 10.2186 15.5436 9.95578 15.8058C9.69358 16.0686 9.37498 16.2 8.99998 16.2ZM5.84998 12.6H12.15V8.09999C12.15 7.22519 11.8437 6.48149 11.2311 5.86889C10.6185 5.25629 9.87478 4.94999 8.99998 4.94999C8.12518 4.94999 7.38148 5.25629 6.76888 5.86889C6.15628 6.48149 5.84998 7.22519 5.84998 8.09999V12.6Z" fill="black"/>
</svg>
