<?xml version="1.0" encoding="utf-8"?>
<svg viewBox="203.28 149.413 14 14.647" width="14" height="14.647" xmlns="http://www.w3.org/2000/svg">
  <g style="fill:none" id="g339" transform="matrix(1, 0, 0, 1, 200.279648, 146.412811)">
    <path id="path292-3" d="M 3.21799,4.09202 C 3,4.51984 3,5.0799 3,6.2 v 5.6 c 0,0.1546 0,0.2985 5.7e-4,0.4329 C 3.00019,12.2386 3,12.2443 3,12.25 v 5.1464 c 0,0.2228 0.26929,0.3343 0.42678,0.1768 L 6.00005,14.9999 C 6.06466,15 6.13127,15 6.2,15 h 7.6 c 1.1201,0 1.6802,0 2.108,-0.218 0.3763,-0.1917 0.6823,-0.4977 0.874,-0.874 C 17,13.4802 17,12.9201 17,11.8 V 6.2 C 17,5.0799 17,4.51984 16.782,4.09202 16.5903,3.71569 16.2843,3.40973 15.908,3.21799 15.4802,3 14.9201,3 13.8,3 H 6.2 C 5.0799,3 4.51984,3 4.09202,3.21799 3.71569,3.40973 3.40973,3.71569 3.21799,4.09202 Z" style="clip-rule:evenodd;fill:#f29900;fill-rule:evenodd"/>
    <path id="path303" d="M 11,5 H 9 v 4.5 h 2 z m 0,6 H 9 v 2 h 2 z" style="clip-rule:evenodd;fill:#ffffff;fill-rule:evenodd"/>
    <path id="path305" mask="url(#path-4-outside-2)" d="M 9,5 V 4.5 H 8.5 V 5 Z m 2,0 h 0.5 V 4.5 H 11 Z M 9,9.5 H 8.5 V 10 H 9 Z m 2,0 V 10 h 0.5 V 9.5 Z M 9,11 V 10.5 H 8.5 V 11 Z m 2,0 h 0.5 V 10.5 H 11 Z M 9,13 H 8.5 v 0.5 H 9 Z m 2,0 v 0.5 h 0.5 V 13 Z M 9,5.5 h 2 v -1 H 9 Z m 0.5,4 V 5 h -1 V 9.5 Z M 11,9 H 9 v 1 h 2 z M 10.5,5 v 4.5 h 1 V 5 Z M 9,11.5 h 2 v -1 H 9 Z M 9.5,13 v -2 h -1 v 2 z M 11,12.5 H 9 v 1 h 2 z M 10.5,11 v 2 h 1 v -2 z" style="fill:none;fill-opacity:0.12"/>
  </g>
</svg>