<?xml version="1.0" encoding="UTF-8" standalone="no"?>
<!-- Created with Inkscape (http://www.inkscape.org/) -->

<svg
   width="16"
   height="16"
   viewBox="0 0 4.2333333 4.2333333"
   version="1.1"
   id="svg236"
   inkscape:version="1.1.1 (3bf5ae0d25, 2021-09-20)"
   sodipodi:docname="circled_exclamation_icon.svg"
   xmlns:inkscape="http://www.inkscape.org/namespaces/inkscape"
   xmlns:sodipodi="http://sodipodi.sourceforge.net/DTD/sodipodi-0.dtd"
   xmlns="http://www.w3.org/2000/svg"
   xmlns:svg="http://www.w3.org/2000/svg">
  <sodipodi:namedview
     id="namedview238"
     pagecolor="#ffffff"
     bordercolor="#666666"
     borderopacity="1.0"
     inkscape:pageshadow="2"
     inkscape:pageopacity="0.0"
     inkscape:pagecheckerboard="0"
     inkscape:document-units="px"
     showgrid="false"
     width="112mm"
     units="px"
     inkscape:zoom="5.1337949"
     inkscape:cx="41.002807"
     inkscape:cy="-30.386878"
     inkscape:window-width="1442"
     inkscape:window-height="808"
     inkscape:window-x="0"
     inkscape:window-y="0"
     inkscape:window-maximized="1"
     inkscape:current-layer="layer1" />
  <defs
     id="defs233" />
  <g
     inkscape:label="Layer 1"
     inkscape:groupmode="layer"
     id="layer1">
    <g
       transform="scale(0.26458333)"
       id="g249"
       style="fill:#000000">
      <path
         d="m 7.25,10.25 h 1.5 v 1.5 h -1.5 z m 0,-6 h 1.5 v 4.5 H 7.25 Z M 7.9925,0.5 C 3.8525,0.5 0.5,3.86 0.5,8 c 0,4.14 3.3525,7.5 7.4925,7.5 C 12.14,15.5 15.5,12.14 15.5,8 15.5,3.86 12.14,0.5 7.9925,0.5 Z M 8,14 C 4.685,14 2,11.315 2,8 2,4.685 4.685,2 8,2 c 3.315,0 6,2.685 6,6 0,3.315 -2.685,6 -6,6 z"
         id="path237" />
    </g>
  </g>
</svg>
