<svg width="18" height="18" viewBox="0 0 18 18" fill="none" xmlns="http://www.w3.org/2000/svg">
<path d="M11.5128 12.1878L12.4686 11.2311L9.67499 8.43749V4.49999H8.32499V8.99999L11.5128 12.1878ZM8.99999 16.2C8.01239 16.2 7.08119 16.0125 6.20639 15.6375C5.33159 15.2625 4.56599 14.7468 3.90959 14.0904C3.25319 13.434 2.73749 12.6684 2.36249 11.7936C1.98749 10.9188 1.79999 9.98759 1.79999 8.99999C1.79999 7.99979 1.98749 7.06229 2.36249 6.18749C2.73749 5.31269 3.25319 4.55009 3.90959 3.89969C4.56599 3.24989 5.33159 2.73749 6.20639 2.36249C7.08119 1.98749 8.01239 1.79999 8.99999 1.79999C10.0002 1.79999 10.9377 1.98749 11.8125 2.36249C12.6873 2.73749 13.4499 3.24989 14.1003 3.89969C14.7501 4.55009 15.2625 5.31269 15.6375 6.18749C16.0125 7.06229 16.2 7.99979 16.2 8.99999C16.2 9.98759 16.0125 10.9188 15.6375 11.7936C15.2625 12.6684 14.7501 13.434 14.1003 14.0904C13.4499 14.7468 12.6873 15.2625 11.8125 15.6375C10.9377 16.0125 10.0002 16.2 8.99999 16.2ZM8.99999 14.85C10.6248 14.85 12.006 14.2782 13.1436 13.1346C14.2812 11.991 14.85 10.6128 14.85 8.99999C14.85 7.37519 14.2812 5.99399 13.1436 4.85639C12.006 3.71879 10.6248 3.14999 8.99999 3.14999C7.38719 3.14999 6.00899 3.71879 4.86539 4.85639C3.72179 5.99399 3.14999 7.37519 3.14999 8.99999C3.14999 10.6128 3.72179 11.991 4.86539 13.1346C6.00899 14.2782 7.38719 14.85 8.99999 14.85Z" fill="black"/>
</svg>
