<svg width="18" height="18" viewBox="0 0 18 18" fill="none" xmlns="http://www.w3.org/2000/svg">
<path d="M4.50002 14.4C3.49982 14.4 2.64992 14.0499 1.95032 13.3497C1.25012 12.6501 0.900024 11.8002 0.900024 10.8C0.900024 9.85018 1.22492 9.02818 1.87472 8.33398C2.52512 7.64038 3.31892 7.26238 4.25612 7.19998C4.54352 6.13738 5.12162 5.27188 5.99042 4.60348C6.85922 3.93448 7.86242 3.59998 9.00002 3.59998C10.2876 3.59998 11.4063 4.03438 12.3561 4.90318C13.3059 5.77198 13.8372 6.83758 13.95 8.09998C14.8248 8.09998 15.5685 8.40628 16.1811 9.01888C16.7937 9.63148 17.1 10.3752 17.1 11.25C17.1 12.1248 16.7937 12.8685 16.1811 13.4811C15.5685 14.0937 14.8248 14.4 13.95 14.4H4.50002ZM4.50002 13.05H13.95C14.4498 13.05 14.8749 12.8751 15.2253 12.5253C15.5751 12.1749 15.75 11.7498 15.75 11.25C15.75 10.7502 15.5751 10.3251 15.2253 9.97468C14.8749 9.62488 14.4498 9.44998 13.95 9.44998H12.7125L12.6 8.23138C12.5124 7.30618 12.1248 6.52798 11.4372 5.89678C10.7496 5.26558 9.93722 4.94998 9.00002 4.94998C8.20022 4.94998 7.48142 5.19058 6.84362 5.67178C6.20642 6.15298 5.78162 6.78748 5.56922 7.57528L5.30642 8.49418L4.34972 8.54998C3.74972 8.58718 3.24992 8.82148 2.85032 9.25288C2.45012 9.68428 2.25002 10.2 2.25002 10.8C2.25002 11.4252 2.46872 11.9565 2.90612 12.3939C3.34352 12.8313 3.87482 13.05 4.50002 13.05Z" fill="black"/>
</svg>
