<svg xmlns="http://www.w3.org/2000/svg" width="18" height="18" fill="none"><g fill="#000" clip-path="url(#a)"><path d="M9.495 7.391 11.115 9l-1.62 1.62 1.193 1.193L13.5 9l-2.813-2.813-1.192 1.204ZM8.494 7.38 7.3 6.188 4.5 9l2.813 2.813 1.192-1.193L6.885 9l1.609-1.62Z"/><path d="M14.063 3.938v10.124H3.937V3.938h10.126Zm.562-1.688H3.375c-.619 0-1.125.506-1.125 1.125v11.25c0 .619.506 1.125 1.125 1.125h11.25c.619 0 1.125-.506 1.125-1.125V3.375c0-.619-.506-1.125-1.125-1.125Z"/></g><defs><clipPath id="a"><path fill="#fff" d="M0 0h18v18H0z"/></clipPath></defs></svg>