<svg width="18" height="18" viewBox="0 0 18 18" fill="none" xmlns="http://www.w3.org/2000/svg">
<path d="M7.87499 7.65C8.18759 7.65 8.45309 7.5405 8.67149 7.3215C8.89049 7.1031 8.99999 6.8376 8.99999 6.525C8.99999 6.2124 8.89049 5.9469 8.67149 5.7285C8.45309 5.5095 8.18759 5.4 7.87499 5.4C7.56239 5.4 7.29689 5.5095 7.07849 5.7285C6.85949 5.9469 6.74999 6.2124 6.74999 6.525C6.74999 6.8376 6.85949 7.1031 7.07849 7.3215C7.29689 7.5405 7.56239 7.65 7.87499 7.65ZM6.07499 11.25C6.38759 11.25 6.65309 11.1405 6.87149 10.9215C7.09049 10.7031 7.19999 10.4376 7.19999 10.125C7.19999 9.8124 7.09049 9.5469 6.87149 9.3285C6.65309 9.1095 6.38759 9 6.07499 9C5.76239 9 5.49689 9.1095 5.27849 9.3285C5.05949 9.5469 4.94999 9.8124 4.94999 10.125C4.94999 10.4376 5.05949 10.7031 5.27849 10.9215C5.49689 11.1405 5.76239 11.25 6.07499 11.25ZM11.25 11.925C11.4372 11.925 11.5965 11.8593 11.7279 11.7279C11.8593 11.5965 11.925 11.4372 11.925 11.25C11.925 11.0628 11.8593 10.9035 11.7279 10.7721C11.5965 10.6407 11.4372 10.575 11.25 10.575C11.0628 10.575 10.9035 10.6407 10.7721 10.7721C10.6407 10.9035 10.575 11.0628 10.575 11.25C10.575 11.4372 10.6407 11.5965 10.7721 11.7279C10.9035 11.8593 11.0628 11.925 11.25 11.925ZM8.99999 16.2C8.01239 16.2 7.08119 16.0125 6.20639 15.6375C5.33159 15.2625 4.56599 14.7468 3.90959 14.0904C3.25319 13.434 2.73749 12.6684 2.36249 11.7936C1.98749 10.9188 1.79999 9.9876 1.79999 9C1.79999 7.8372 2.05319 6.759 2.55959 5.7654C3.06599 4.7718 3.73139 3.9438 4.55579 3.2814C5.38139 2.619 6.31289 2.1564 7.35029 1.8936C8.38769 1.6314 9.43769 1.6503 10.5003 1.9503C10.4001 2.4999 10.4313 3.006 10.5939 3.4686C10.7565 3.9312 11.0127 4.3155 11.3625 4.6215C11.7123 4.9281 12.1374 5.1408 12.6378 5.2596C13.1376 5.3784 13.6686 5.3688 14.2308 5.2308C13.9188 5.9436 13.9659 6.6219 14.3721 7.2657C14.7783 7.9095 15.375 8.244 16.1622 8.2692C16.275 9.3312 16.1625 10.3404 15.8247 11.2968C15.4875 12.2532 14.9907 13.0938 14.3343 13.8186C13.6779 14.5434 12.8904 15.1215 11.9718 15.5529C11.0532 15.9843 10.0626 16.2 8.99999 16.2ZM8.99999 14.85C10.5624 14.85 11.9031 14.322 13.0221 13.266C14.1405 12.2094 14.7498 10.8999 14.85 9.3375C14.2872 9.1125 13.8186 8.7657 13.4442 8.2971C13.0686 7.8285 12.831 7.2942 12.7314 6.6942C11.781 6.5562 10.9746 6.1623 10.3122 5.5125C9.64979 4.8627 9.25619 4.0752 9.13139 3.15C8.34359 3.1002 7.59029 3.222 6.87149 3.5154C6.15329 3.8094 5.51579 4.2252 4.95899 4.7628C4.40279 5.3004 3.96239 5.9346 3.63779 6.6654C3.31259 7.3968 3.14999 8.175 3.14999 9C3.14999 10.6248 3.71879 12.006 4.85639 13.1436C5.99399 14.2812 7.37519 14.85 8.99999 14.85Z" fill="black"/>
</svg>
