<svg width="20" height="20" viewBox="0 0 20 20" fill="none" xmlns="http://www.w3.org/2000/svg">
<path d="M8.75 8.49999C9.09733 8.49999 9.39233 8.37832 9.635 8.13499C9.87833 7.89232 10 7.59732 10 7.24999C10 6.90265 9.87833 6.60765 9.635 6.36499C9.39233 6.12165 9.09733 5.99999 8.75 5.99999C8.40267 5.99999 8.10767 6.12165 7.865 6.36499C7.62167 6.60765 7.5 6.90265 7.5 7.24999C7.5 7.59732 7.62167 7.89232 7.865 8.13499C8.10767 8.37832 8.40267 8.49999 8.75 8.49999ZM6.75 12.5C7.09733 12.5 7.39233 12.3783 7.635 12.135C7.87833 11.8923 8 11.5973 8 11.25C8 10.9027 7.87833 10.6077 7.635 10.365C7.39233 10.1217 7.09733 9.99999 6.75 9.99999C6.40267 9.99999 6.10767 10.1217 5.865 10.365C5.62167 10.6077 5.5 10.9027 5.5 11.25C5.5 11.5973 5.62167 11.8923 5.865 12.135C6.10767 12.3783 6.40267 12.5 6.75 12.5ZM12.5 13.25C12.708 13.25 12.885 13.177 13.031 13.031C13.177 12.885 13.25 12.708 13.25 12.5C13.25 12.292 13.177 12.115 13.031 11.969C12.885 11.823 12.708 11.75 12.5 11.75C12.292 11.75 12.115 11.823 11.969 11.969C11.823 12.115 11.75 12.292 11.75 12.5C11.75 12.708 11.823 12.885 11.969 13.031C12.115 13.177 12.292 13.25 12.5 13.25ZM10 18C8.90267 18 7.868 17.7917 6.896 17.375C5.924 16.9583 5.07333 16.3853 4.344 15.656C3.61467 14.9267 3.04167 14.076 2.625 13.104C2.20833 12.132 2 11.0973 2 9.99999C2 8.70799 2.28133 7.50999 2.844 6.40599C3.40667 5.30199 4.146 4.38199 5.062 3.64599C5.97933 2.90999 7.01433 2.39599 8.167 2.10399C9.31967 1.81265 10.4863 1.83365 11.667 2.16699C11.5557 2.77765 11.5903 3.33999 11.771 3.85399C11.9517 4.36799 12.2363 4.79499 12.625 5.13499C13.0137 5.47565 13.486 5.71199 14.042 5.84399C14.5973 5.97599 15.1873 5.96532 15.812 5.81199C15.4653 6.60399 15.5177 7.35765 15.969 8.07299C16.4203 8.78832 17.0833 9.15999 17.958 9.18799C18.0833 10.368 17.9583 11.4893 17.583 12.552C17.2083 13.6147 16.6563 14.5487 15.927 15.354C15.1977 16.1593 14.3227 16.8017 13.302 17.281C12.2813 17.7603 11.1807 18 10 18ZM10 16.5C11.736 16.5 13.2257 15.9133 14.469 14.74C15.7117 13.566 16.3887 12.111 16.5 10.375C15.8747 10.125 15.354 9.73965 14.938 9.21899C14.5207 8.69832 14.2567 8.10465 14.146 7.43799C13.09 7.28465 12.194 6.84699 11.458 6.12499C10.722 5.40299 10.2847 4.52799 10.146 3.49999C9.27067 3.44465 8.43367 3.57999 7.635 3.90599C6.837 4.23265 6.12867 4.69465 5.51 5.29199C4.892 5.88932 4.40267 6.59399 4.042 7.40599C3.68067 8.21865 3.5 9.08332 3.5 9.99999C3.5 11.8053 4.132 13.34 5.396 14.604C6.66 15.868 8.19467 16.5 10 16.5Z" fill="black"/>
</svg>
