<svg width="18" height="18" viewBox="0 0 18 18" fill="none" xmlns="http://www.w3.org/2000/svg">
<path d="M16.2 4.95004V13.05C16.2 13.4124 16.0686 13.728 15.8058 13.9968C15.5436 14.2656 15.225 14.4 14.85 14.4H3.14999C2.78759 14.4 2.47199 14.2656 2.20319 13.9968C1.93439 13.728 1.79999 13.4124 1.79999 13.05V4.95004C1.79999 4.58764 1.93439 4.27204 2.20319 4.00324C2.47199 3.73444 2.78759 3.60004 3.14999 3.60004H14.85C15.225 3.60004 15.5436 3.73444 15.8058 4.00324C16.0686 4.27204 16.2 4.58764 16.2 4.95004ZM3.14999 6.30004H14.85V4.95004H3.14999V6.30004ZM3.14999 9.00004V13.05H14.85V9.00004H3.14999Z" fill="black"/>
</svg>
