<svg width="20" height="20" viewBox="0 0 20 20" fill="none" xmlns="http://www.w3.org/2000/svg">
<path d="M10 9C7.95867 9 6.28167 8.71867 4.969 8.156C3.65633 7.59333 3 6.87467 3 6C3 5.18067 3.68733 4.47567 5.062 3.885C6.43733 3.295 8.08333 3 10 3C11.9167 3 13.5627 3.295 14.938 3.885C16.3127 4.47567 17 5.18067 17 6C17 6.87467 16.3437 7.59333 15.031 8.156C13.7183 8.71867 12.0413 9 10 9ZM10 13C8.014 13 6.35067 12.7117 5.01 12.135C3.67 11.559 3 10.8473 3 10V8.042C3 8.44467 3.18733 8.823 3.562 9.177C3.93733 9.531 4.44433 9.84367 5.083 10.115C5.72233 10.3857 6.46533 10.6007 7.312 10.76C8.15933 10.92 9.05533 11 10 11C10.9447 11 11.8407 10.92 12.688 10.76C13.5347 10.6007 14.2777 10.3857 14.917 10.115C15.5557 9.84367 16.0627 9.531 16.438 9.177C16.8127 8.823 17 8.44467 17 8.042V10C17 10.8473 16.33 11.559 14.99 12.135C13.6493 12.7117 11.986 13 10 13ZM10 17C8.05533 17 6.40267 16.698 5.042 16.094C3.68067 15.49 3 14.7573 3 13.896V11.938C3 12.3407 3.191 12.726 3.573 13.094C3.955 13.462 4.469 13.7883 5.115 14.073C5.76033 14.3577 6.50667 14.5833 7.354 14.75C8.20133 14.9167 9.08333 15 10 15C10.9167 15 11.7987 14.9167 12.646 14.75C13.4933 14.5833 14.2397 14.3577 14.885 14.073C15.531 13.7883 16.045 13.462 16.427 13.094C16.809 12.726 17 12.3407 17 11.938V13.896C17 14.7573 16.3193 15.49 14.958 16.094C13.5973 16.698 11.9447 17 10 17Z" fill="black"/>
</svg>
