<svg xmlns="http://www.w3.org/2000/svg" width="18" height="18" fill="none"><g fill="#000" clip-path="url(#a)"><path d="M9 7.875c3.728 0 6.75-1.26 6.75-2.813C15.75 3.51 12.728 2.25 9 2.25S2.25 3.51 2.25 5.063c0 1.553 3.022 2.812 6.75 2.812ZM9 13.5c-3.724 0-6.75-1.26-6.75-2.813v2.25c0 1.553 3.026 2.813 6.75 2.813s6.75-1.26 6.75-2.813v-2.25c0 1.553-3.026 2.813-6.75 2.813Z"/><path d="M9 9.563c-3.724 0-6.75-1.26-6.75-2.813V9c0 1.553 3.026 2.813 6.75 2.813s6.75-1.26 6.75-2.813V6.75c0 1.553-3.026 2.813-6.75 2.813Z"/></g><defs><clipPath id="a"><path fill="#fff" d="M0 0h18v18H0z"/></clipPath></defs></svg>