<svg width="18" height="18" viewBox="0 0 18 18" fill="none" xmlns="http://www.w3.org/2000/svg">
<path d="M1.79999 14.4001V12.6001H3.59999V4.9501C3.59999 4.5751 3.73139 4.2565 3.99419 3.9943C4.25639 3.7315 4.57499 3.6001 4.94999 3.6001H15.3V4.9501H4.94999V12.6001H8.99999V14.4001H1.79999ZM11.7 14.4001C11.4498 14.4001 11.2374 14.3125 11.0628 14.1373C10.8876 13.9627 10.8 13.7503 10.8 13.5001V7.2001C10.8 6.9499 10.8876 6.7375 11.0628 6.5629C11.2374 6.3877 11.4498 6.3001 11.7 6.3001H15.3C15.5502 6.3001 15.7626 6.3877 15.9372 6.5629C16.1124 6.7375 16.2 6.9499 16.2 7.2001V13.5001C16.2 13.7503 16.1124 13.9627 15.9372 14.1373C15.7626 14.3125 15.5502 14.4001 15.3 14.4001H11.7ZM12.15 12.6001H14.85V7.6501H12.15V12.6001Z" fill="black"/>
</svg>
