<svg width="18" height="18" viewBox="0 0 18 18" fill="none" xmlns="http://www.w3.org/2000/svg">
<path d="M4.61249 9.00005L4.36859 7.94975C4.19339 7.88735 4.03079 7.81235 3.88079 7.72475C3.73079 7.63775 3.58709 7.53785 3.44969 7.42505L2.40029 7.74365L1.79999 6.69425L2.58749 5.94365C2.56229 5.76845 2.54669 5.58725 2.54069 5.40005C2.53409 5.21285 2.54969 5.03165 2.58749 4.85645L1.79999 4.14365L2.40029 3.09425L3.43079 3.39395C3.56879 3.26855 3.71579 3.16235 3.87179 3.07535C4.02779 2.98775 4.19339 2.91275 4.36859 2.85035L4.61249 1.80005H5.81219L6.05609 2.85035C6.23129 2.91275 6.40019 2.98775 6.56279 3.07535C6.72479 3.16235 6.87479 3.26855 7.01279 3.39395L8.04419 3.09425L8.62469 4.14365L7.87499 4.83755C7.91219 5.02535 7.93079 5.21285 7.93079 5.40005C7.93079 5.58725 7.91219 5.77475 7.87499 5.96255L8.64359 6.71225L8.04419 7.74365L6.99389 7.42505C6.85649 7.54985 6.70949 7.65305 6.55289 7.73465C6.39689 7.81565 6.23129 7.88735 6.05609 7.94975L5.81219 9.00005H4.61249ZM5.23079 6.75005C5.60639 6.75005 5.92529 6.61865 6.18749 6.35585C6.44969 6.09365 6.58079 5.77505 6.58079 5.40005C6.58079 5.02505 6.44969 4.70645 6.18749 4.44425C5.92529 4.18145 5.60639 4.05005 5.23079 4.05005C4.85639 4.05005 4.53779 4.18145 4.27499 4.44425C4.01219 4.70645 3.88079 5.02505 3.88079 5.40005C3.88079 5.77505 4.01219 6.09365 4.27499 6.35585C4.53779 6.61865 4.85639 6.75005 5.23079 6.75005ZM11.6064 16.2L11.3058 14.8689C11.0934 14.7939 10.8903 14.7033 10.6965 14.5971C10.5027 14.4909 10.3185 14.3628 10.1439 14.2128L8.84969 14.625L8.09999 13.3128L9.07469 12.3939C9.02489 12.1689 8.99999 11.9406 8.99999 11.709C8.99999 11.478 9.02489 11.25 9.07469 11.025L8.09999 10.125L8.84969 8.81285L10.125 9.20615C10.3002 9.05615 10.4877 8.92175 10.6875 8.80295C10.8873 8.68415 11.0934 8.58725 11.3058 8.51225L11.6064 7.20005H13.1058L13.4253 8.51225C13.6503 8.58725 13.8627 8.68115 14.0625 8.79395C14.2623 8.90615 14.4498 9.04355 14.625 9.20615L15.9003 8.81285L16.65 10.125L15.6942 11.0061C15.744 11.2437 15.7689 11.478 15.7689 11.709C15.7689 11.9406 15.744 12.1752 15.6942 12.4128L16.65 13.3128L15.9003 14.625L14.625 14.2128C14.4498 14.3628 14.2593 14.4939 14.0535 14.6061C13.8471 14.7189 13.6377 14.8128 13.4253 14.8878L13.1058 16.2H11.6064ZM12.375 13.5C12.8748 13.5 13.2999 13.3251 13.6503 12.9753C14.0001 12.6249 14.175 12.1998 14.175 11.7C14.175 11.2002 14.0001 10.7751 13.6503 10.4247C13.2999 10.0749 12.8748 9.90005 12.375 9.90005C11.8752 9.90005 11.4501 10.0749 11.0997 10.4247C10.7499 10.7751 10.575 11.2002 10.575 11.7C10.575 12.1998 10.7499 12.6249 11.0997 12.9753C11.4501 13.3251 11.8752 13.5 12.375 13.5Z" fill="black"/>
</svg>
