<svg width="20" height="20" viewBox="0 0 20 20" fill="none" xmlns="http://www.w3.org/2000/svg">
<path d="M8.396 18L7.938 15.625C7.618 15.5003 7.30866 15.3547 7.01 15.188C6.71133 15.0213 6.43033 14.8267 6.167 14.604L3.875 15.375L2.271 12.604L4.083 11.021C4.05566 10.8543 4.035 10.6877 4.021 10.521C4.007 10.3543 4 10.1807 4 10C4 9.81933 4.007 9.64567 4.021 9.479C4.035 9.31233 4.05566 9.14567 4.083 8.979L2.271 7.396L3.875 4.625L6.167 5.396C6.43033 5.17333 6.71133 4.97867 7.01 4.812C7.30866 4.64533 7.618 4.49967 7.938 4.375L8.396 2H11.604L12.062 4.375C12.382 4.49967 12.6913 4.64533 12.99 4.812C13.2887 4.97867 13.5697 5.17333 13.833 5.396L16.125 4.625L17.729 7.396L15.917 8.979C15.9443 9.14567 15.965 9.31233 15.979 9.479C15.993 9.64567 16 9.81933 16 10C16 10.1807 15.993 10.3543 15.979 10.521C15.965 10.6877 15.9443 10.8543 15.917 11.021L17.729 12.604L16.125 15.375L13.833 14.604C13.5697 14.8267 13.2887 15.0213 12.99 15.188C12.6913 15.3547 12.382 15.5003 12.062 15.625L11.604 18H8.396ZM9.625 16.5H10.375L10.771 14.438C11.2983 14.3407 11.7913 14.16 12.25 13.896C12.7087 13.632 13.1047 13.2987 13.438 12.896L15.438 13.562L15.812 12.938L14.229 11.542C14.3123 11.306 14.3783 11.0593 14.427 10.802C14.4757 10.5453 14.5 10.278 14.5 10C14.5 9.722 14.4757 9.45467 14.427 9.198C14.3783 8.94067 14.3123 8.694 14.229 8.458L15.812 7.062L15.438 6.438L13.438 7.104C13.1047 6.70133 12.7087 6.368 12.25 6.104C11.7913 5.84 11.2983 5.65933 10.771 5.562L10.375 3.5H9.625L9.229 5.562C8.70166 5.65933 8.20866 5.84 7.75 6.104C7.29133 6.368 6.89533 6.70133 6.562 7.104L4.562 6.438L4.188 7.062L5.771 8.458C5.68766 8.694 5.62166 8.94067 5.573 9.198C5.52433 9.45467 5.5 9.722 5.5 10C5.5 10.278 5.52433 10.5453 5.573 10.802C5.62166 11.0593 5.68766 11.306 5.771 11.542L4.188 12.938L4.562 13.562L6.562 12.896C6.89533 13.2987 7.29133 13.632 7.75 13.896C8.20866 14.16 8.70166 14.3407 9.229 14.438L9.625 16.5ZM10 13C10.8333 13 11.5417 12.7083 12.125 12.125C12.7083 11.5417 13 10.8333 13 10C13 9.16667 12.7083 8.45833 12.125 7.875C11.5417 7.29167 10.8333 7 10 7C9.16666 7 8.45833 7.29167 7.875 7.875C7.29166 8.45833 7 9.16667 7 10C7 10.8333 7.29166 11.5417 7.875 12.125C8.45833 12.7083 9.16666 13 10 13Z" fill="black"/>
</svg>
