<svg width="10" height="10" viewBox="0 0 10 10" fill="none" xmlns="http://www.w3.org/2000/svg">
<rect width="10" height="10" fill="white"/>
<path fill-rule="evenodd" clip-rule="evenodd" d="M0.636244 1.14756C0.5 1.40125 0.5 1.73336 0.5 2.39757V5.71832C0.5 5.81 0.5 5.89533 0.500356 5.97503C0.500119 5.97858 0.5 5.98179 0.5 5.98517V9.03693C0.5 9.16905 0.668306 9.23517 0.766737 9.14178L2.37503 7.61583C2.41541 7.61589 2.45704 7.61589 2.5 7.61589H7.25C7.95006 7.61589 8.30012 7.61589 8.5675 7.48662C8.80269 7.37294 8.99393 7.19149 9.11375 6.96835C9.25 6.71466 9.25 6.38253 9.25 5.71832V2.39757C9.25 1.73336 9.25 1.40125 9.11375 1.14756C8.99393 0.924398 8.80269 0.742966 8.5675 0.629266C8.30012 0.5 7.95006 0.5 7.25 0.5H2.5C1.79994 0.5 1.4499 0.5 1.18251 0.629266C0.947306 0.742966 0.756081 0.924398 0.636244 1.14756V1.14756Z" fill="#F9AB00"/>
<path d="M7.62488 2.41447H2.12488V3.21447H7.62488V2.41447Z" fill="white"/>
<path d="M5.52488 4.57174H2.12488V5.37174H5.52488V4.57174Z" fill="white"/>
</svg>
