<svg width="10" height="10" viewBox="0 0 10 10" fill="none" xmlns="http://www.w3.org/2000/svg">
<rect width="10" height="10" fill="white"/>
<path d="M5 10C2.24 10 0 7.76 0 5C0 2.24 2.24 0 5 0C7.76 0 10 2.24 10 5C10 7.76 7.76 10 5 10Z" fill="url(#paint0_linear_2_139)"/>
<path d="M9.5 5C9.5 7.49 7.49 9.5 5 9.5C2.51 9.5 0.5 7.49 0.5 5C0.5 2.51 2.51 0.5 5 0.5C7.49 0.5 9.5 2.51 9.5 5Z" fill="#DD0000"/>
<path d="M5.02997 0.530001C6.99997 0.530001 8.58997 1.55 8.58997 2.81C8.58997 4.07 6.99997 5.09 5.02997 5.09C3.05997 5.09 1.46997 4.07 1.46997 2.81C1.46997 1.55 3.05997 0.530001 5.02997 0.530001V0.530001Z" fill="url(#paint1_linear_2_139)"/>
<path d="M5.03003 9.47C6.69003 9.47 8.03003 8.76 8.03003 7.88C8.03003 7 6.69003 6.29 5.03003 6.29C3.37003 6.29 2.03003 7 2.03003 7.88C2.03003 8.76 3.37003 9.47 5.03003 9.47Z" fill="url(#paint2_linear_2_139)"/>
<defs>
<linearGradient id="paint0_linear_2_139" x1="4.88947" y1="-0.035116" x2="4.88947" y2="9.95102" gradientUnits="userSpaceOnUse">
<stop stop-color="#A10000"/>
<stop offset="1" stop-color="#C60000"/>
</linearGradient>
<linearGradient id="paint1_linear_2_139" x1="5.08175" y1="5.12284" x2="5.08175" y2="0.566633" gradientUnits="userSpaceOnUse">
<stop stop-color="#E60000" stop-opacity="0.65"/>
<stop offset="1" stop-color="white" stop-opacity="0.91"/>
</linearGradient>
<linearGradient id="paint2_linear_2_139" x1="5.00338" y1="6.30972" x2="5.00338" y2="9.49286" gradientUnits="userSpaceOnUse">
<stop stop-color="#FF0000" stop-opacity="0"/>
<stop offset="1" stop-color="#F0CB68" stop-opacity="0.71"/>
</linearGradient>
</defs>
</svg>
