<svg width="10" height="10" viewBox="0 0 10 10" fill="none" xmlns="http://www.w3.org/2000/svg">
<rect width="10" height="10" fill="white"/>
<path d="M5 10C2.24 10 0 7.76 0 5C0 2.24 2.24 0 5 0C7.76 0 10 2.24 10 5C10 7.76 7.76 10 5 10Z" fill="#E5A600"/>
<path d="M9.5 5C9.5 7.49 7.49 9.5 5 9.5C2.51 9.5 0.5 7.49 0.5 5C0.5 2.51 2.51 0.5 5 0.5C7.49 0.5 9.5 2.51 9.5 5Z" fill="#FFBD00"/>
<path d="M5.02997 0.53C6.99997 0.53 8.58997 1.55 8.58997 2.81C8.58997 4.07 6.99997 5.09 5.02997 5.09C3.05997 5.09 1.46997 4.07 1.46997 2.81C1.46997 1.55 3.05997 0.53 5.02997 0.53V0.53Z" fill="url(#paint0_linear_2_167)"/>
<path d="M4.98999 9.42C6.64999 9.42 7.98999 8.71 7.98999 7.83C7.98999 6.95 6.64999 6.24 4.98999 6.24C3.32999 6.24 1.98999 6.95 1.98999 7.83C1.98999 8.71 3.32999 9.42 4.98999 9.42Z" fill="url(#paint1_linear_2_167)"/>
<defs>
<linearGradient id="paint0_linear_2_167" x1="5.08175" y1="5.12284" x2="5.08175" y2="0.566632" gradientUnits="userSpaceOnUse">
<stop stop-color="#FFBD00" stop-opacity="0.65"/>
<stop offset="1" stop-color="white" stop-opacity="0.91"/>
</linearGradient>
<linearGradient id="paint1_linear_2_167" x1="4.95934" y1="6.26572" x2="4.95934" y2="9.44886" gradientUnits="userSpaceOnUse">
<stop stop-color="#FFA801" stop-opacity="0"/>
<stop offset="1" stop-color="#F0FB3D"/>
</linearGradient>
</defs>
</svg>
