<svg width="10" height="10" viewBox="0 0 10 10" fill="none" xmlns="http://www.w3.org/2000/svg">
<g clip-path="url(#clip0_2_163)">
<rect width="10" height="10" fill="white"/>
<path d="M5 -4.76837e-07C2.24 -4.76837e-07 0 2.24 0 5C0 7.76 2.24 10 5 10C7.76 10 10 7.76 10 5C10 2.24 7.76 -4.76837e-07 5 -4.76837e-07Z" fill="url(#paint0_linear_2_163)"/>
<path d="M0.359985 5C0.359985 7.56 2.43998 9.64 4.99998 9.64C7.55998 9.64 9.63998 7.56 9.63998 5C9.63998 2.44 7.55998 0.36 4.99998 0.36C2.43998 0.36 0.359985 2.44 0.359985 5" fill="#2A53CD"/>
<path d="M3.93003 2.14C3.90003 1.61 4.48003 1.17 4.99003 1.31C5.49003 1.43 5.78003 2.04 5.55003 2.49C5.35003 2.93 4.76003 3.1 4.35003 2.85C4.09003 2.71 3.93003 2.43 3.93003 2.14ZM5.63003 7.6H6.30003V8.13H3.41003V7.6H4.07003V3.99H3.41003V3.46H5.63003V7.6V7.6Z" fill="white"/>
</g>
<defs>
<linearGradient id="paint0_linear_2_163" x1="0.00077" y1="5.00016" x2="10.0008" y2="5.00016" gradientUnits="userSpaceOnUse">
<stop stop-color="#606EDA"/>
<stop offset="1" stop-color="#021DB2"/>
</linearGradient>
<clipPath id="clip0_2_163">
<rect width="10" height="10" fill="white"/>
</clipPath>
</defs>
</svg>
