<svg width="10" height="10" viewBox="0 0 10 10" fill="none" xmlns="http://www.w3.org/2000/svg">
<g clip-path="url(#clip0_2_165)">
<rect width="10" height="10" fill="white"/>
<path d="M5.09265 9.69251C4.28248 9.68379 3.63081 9.02638 3.63961 8.22355C3.64842 7.42073 4.31184 6.77496 5.122 6.78369C5.93217 6.79241 6.58384 7.44982 6.57504 8.25265C6.56623 9.05547 5.90281 9.70124 5.09265 9.69251Z" fill="#ACF2AE" stroke="#007200" stroke-width="0.753069"/>
<path d="M6.42834 8.25264C6.41953 8.97693 5.82364 9.55579 5.09273 9.54706C4.36183 9.53833 3.77767 8.94787 3.78648 8.22355C3.79528 7.49927 4.39118 6.92041 5.12208 6.92914C5.85299 6.93786 6.43715 7.52833 6.42834 8.25264V8.25264Z" fill="#ACF2AE" stroke="#007200" stroke-width="0.753069"/>
<path d="M8.2037 2.41946L5.10185 5.9196L2 2.41946H3.24074V0.5H6.96296V2.41974L8.2037 2.41946Z" fill="#ADF2AD" stroke="#007200"/>
</g>
<defs>
<clipPath id="clip0_2_165">
<rect width="10" height="10" fill="white"/>
</clipPath>
</defs>
</svg>
