<svg width="10" height="10" viewBox="0 0 10 10" fill="none" xmlns="http://www.w3.org/2000/svg">
<rect width="10" height="10" fill="white"/>
<path d="M4.98336 0.15C2.31536 0.15 0.150024 2.31533 0.150024 4.98333C0.150024 7.65133 2.31536 9.81667 4.98336 9.81667C7.65136 9.81667 9.81669 7.65133 9.81669 4.98333C9.81669 2.31533 7.65136 0.15 4.98336 0.15ZM4.98336 1.6C5.78569 1.6 6.43336 2.24767 6.43336 3.05C6.43336 3.85233 5.78569 4.5 4.98336 4.5C4.18102 4.5 3.53336 3.85233 3.53336 3.05C3.53336 2.24767 4.18102 1.6 4.98336 1.6ZM4.98336 8.46333C3.77502 8.46333 2.70686 7.84467 2.08336 6.907C2.09786 5.94517 4.01669 5.41833 4.98336 5.41833C5.94519 5.41833 7.86886 5.94517 7.88336 6.907C7.25986 7.84467 6.19169 8.46333 4.98336 8.46333Z" fill="black"/>
</svg>
