<svg width="10" height="10" viewBox="0 0 10 10" fill="none" xmlns="http://www.w3.org/2000/svg">
<rect width="10" height="10" fill="white"/>
<mask id="mask0_2_171" style="mask-type:alpha" maskUnits="userSpaceOnUse" x="0" y="0" width="10" height="10">
<path fill-rule="evenodd" clip-rule="evenodd" d="M10 0H0V10H10V0ZM4.29287 5L2.64642 3.35355L3.35353 2.64645L4.99998 4.29289L6.64642 2.64645L7.35353 3.35355L5.70708 5L7.35353 6.64645L6.64642 7.35355L4.99998 5.70711L3.35353 7.35355L2.64642 6.64645L4.29287 5Z" fill="white"/>
</mask>
<g mask="url(#mask0_2_171)">
<path d="M5 -4.76837e-07C2.24 -4.76837e-07 0 2.24 0 5C0 7.76 2.24 10 5 10C7.76 10 10 7.76 10 5C10 2.24 7.76 -4.76837e-07 5 -4.76837e-07Z" fill="url(#paint0_linear_2_171)"/>
<path d="M0.359985 5C0.359985 7.56 2.43998 9.64 4.99998 9.64C7.55998 9.64 9.63998 7.56 9.63998 5C9.63998 2.44 7.55998 0.36 4.99998 0.36C2.43998 0.36 0.359985 2.44 0.359985 5" fill="#EB3941"/>
</g>
<defs>
<linearGradient id="paint0_linear_2_171" x1="5" y1="10" x2="5" y2="-7.97516e-05" gradientUnits="userSpaceOnUse">
<stop stop-color="#D7687D"/>
<stop offset="1" stop-color="#B21402"/>
</linearGradient>
</defs>
</svg>
