<svg width="10" height="10" viewBox="0 0 10 10" fill="none" xmlns="http://www.w3.org/2000/svg">
<rect width="10" height="10" fill="white"/>
<path d="M4.95385 8.41539C3.04616 8.41539 1.49231 6.86154 1.49231 4.95385C1.49231 4.27692 1.69231 3.64615 2.02307 3.11538L6.79231 7.88462C6.26154 8.22308 5.63077 8.41539 4.95385 8.41539ZM8.41539 4.95385C8.41539 5.63077 8.21538 6.26154 7.88462 6.79231L3.11539 2.02308C3.64616 1.68462 4.27693 1.49231 4.95385 1.49231C6.86154 1.49231 8.41539 3.04615 8.41539 4.95385V4.95385ZM5 0C2.23846 0 0 2.23846 0 5C0 7.76154 2.23846 10 5 10C7.76154 10 10 7.76154 10 5C10 2.23846 7.76154 0 5 0Z" fill="black"/>
</svg>
