<svg width="10" height="10" viewBox="0 0 10 10" fill="none" xmlns="http://www.w3.org/2000/svg">
<rect width="10" height="10" fill="white"/>
<path d="M0 0.995401C0 0.445661 0.455659 0 0.995399 0H9.0046C9.55434 0 10 0.455661 10 0.995401V9.0046C10 9.55434 9.54434 10 9.0046 10H0.995399C0.445659 10 0 9.54434 0 9.0046V0.995401ZM5.1233 5.7398C7.6906 5.31192 8.75 4.5468 8.75 2H7.25C7.25 3.6199 6.80942 3.9381 4.8767 4.2602C2.3094 4.68808 1.25 5.4532 1.25 8H2.75C2.75 6.3801 3.19058 6.0619 5.1233 5.7398Z" fill="black"/>
</svg>
