<svg width="18" height="18" viewBox="0 0 18 18" fill="none" xmlns="http://www.w3.org/2000/svg">
<path d="M8.99999 9.90001H12.6V8.55001H8.99999V9.90001ZM8.09999 10.8V7.65001H13.5V10.8H8.09999ZM3.14999 14.4C2.77499 14.4 2.45639 14.2686 2.19419 14.0058C1.93139 13.7436 1.79999 13.425 1.79999 13.05V4.95001C1.79999 4.57501 1.93139 4.25641 2.19419 3.99421C2.45639 3.73141 2.77499 3.60001 3.14999 3.60001H14.85C15.225 3.60001 15.5436 3.73141 15.8058 3.99421C16.0686 4.25641 16.2 4.57501 16.2 4.95001V13.05C16.2 13.425 16.0686 13.7436 15.8058 14.0058C15.5436 14.2686 15.225 14.4 14.85 14.4H3.14999ZM3.14999 13.05H14.85V6.30001H3.14999V13.05Z" fill="black"/>
</svg>
