<svg width="16" height="10" viewBox="0 0 16 10" fill="none" xmlns="http://www.w3.org/2000/svg">
<path d="M1.5 10C1.08333 10 0.729167 9.85417 0.4375 9.5625C0.145833 9.27083 1.78814e-07 8.91667 1.78814e-07 8.5V1.5C1.78814e-07 1.08333 0.145833 0.729166 0.4375 0.437499C0.729167 0.145832 1.08333 -1.19209e-06 1.5 -1.19209e-06H14.5C14.9167 -1.19209e-06 15.2708 0.145832 15.5625 0.437499C15.8542 0.729166 16 1.08333 16 1.5V8.5C16 8.91667 15.8542 9.27083 15.5625 9.5625C15.2708 9.85417 14.9167 10 14.5 10H1.5ZM1.5 8.5H14.5V1.5H1.5V8.5ZM5 8H11V6.5H5V8ZM3 5.5H4.5V4H3V5.5ZM5.125 5.5H6.625V4H5.125V5.5ZM7.25 5.5H8.75V4H7.25V5.5ZM9.375 5.5H10.875V4H9.375V5.5ZM11.5 5.5H13V4H11.5V5.5ZM3 3.5H4.5V2H3V3.5ZM5.125 3.5H6.625V2H5.125V3.5ZM7.25 3.5H8.75V2H7.25V3.5ZM9.375 3.5H10.875V2H9.375V3.5ZM11.5 3.5H13V2H11.5V3.5ZM1.5 8.5V1.5V8.5Z" fill="#474747"/>
</svg>
