<svg width="20" height="20" viewBox="0 0 20 20" fill="none" xmlns="http://www.w3.org/2000/svg">
<g clip-path="url(#clip0_3067_1004)">
<path d="M10 18C9.81944 18 9.65972 17.9514 9.52083 17.8542C9.38194 17.7431 9.28472 17.6042 9.22917 17.4375C8.96528 16.7014 8.64583 16.0069 8.27083 15.3542C7.90972 14.6875 7.38195 13.9097 6.6875 13.0208C6.00694 12.1458 5.45139 11.3056 5.02083 10.5C4.60417 9.69444 4.39583 8.72917 4.39583 7.60417C4.39583 6.04861 4.9375 4.72917 6.02083 3.64583C7.11806 2.54861 8.44444 2 10 2C11.5556 2 12.875 2.54861 13.9583 3.64583C15.0556 4.72917 15.6042 6.04861 15.6042 7.60417C15.6042 8.82639 15.3681 9.84028 14.8958 10.6458C14.4375 11.4375 13.9097 12.2292 13.3125 13.0208C12.5903 13.9653 12.0417 14.7639 11.6667 15.4167C11.3056 16.0556 11.0069 16.7292 10.7708 17.4375C10.7014 17.6042 10.5972 17.7431 10.4583 17.8542C10.3333 17.9514 10.1806 18 10 18ZM10 15.3542C10.2361 14.8819 10.5 14.4167 10.7917 13.9583C11.0972 13.4861 11.5417 12.8681 12.125 12.1042C12.7083 11.3542 13.1806 10.6597 13.5417 10.0208C13.9167 9.36805 14.1042 8.5625 14.1042 7.60417C14.1042 6.47917 13.7014 5.51389 12.8958 4.70833C12.0903 3.90278 11.125 3.5 10 3.5C8.86111 3.5 7.88889 3.90278 7.08333 4.70833C6.29167 5.51389 5.89583 6.47917 5.89583 7.60417C5.89583 8.5625 6.08333 9.36805 6.45833 10.0208C6.83333 10.6597 7.30556 11.3542 7.875 12.1042C8.45833 12.8681 8.89583 13.4861 9.1875 13.9583C9.49306 14.4167 9.76389 14.8819 10 15.3542ZM10 9.625C10.5556 9.625 11.0278 9.43056 11.4167 9.04167C11.8194 8.63889 12.0208 8.15972 12.0208 7.60417C12.0208 7.04861 11.8194 6.57639 11.4167 6.1875C11.0278 5.78472 10.5556 5.58333 10 5.58333C9.44444 5.58333 8.96528 5.78472 8.5625 6.1875C8.17361 6.57639 7.97917 7.04861 7.97917 7.60417C7.97917 8.15972 8.17361 8.63889 8.5625 9.04167C8.96528 9.43056 9.44444 9.625 10 9.625Z" fill="#474747"/>
</g>
<defs>
<clipPath id="clip0_3067_1004">
<rect width="20" height="20" fill="white"/>
</clipPath>
</defs>
</svg>
