<svg width="20" height="20" viewBox="0 0 20 20" fill="none" xmlns="http://www.w3.org/2000/svg">
<path d="M5.5 16.5H14.5V8.5H5.5V16.5ZM10 14C10.4167 14 10.7708 13.8542 11.0625 13.5625C11.3542 13.2708 11.5 12.9167 11.5 12.5C11.5 12.0833 11.3542 11.7292 11.0625 11.4375C10.7708 11.1458 10.4167 11 10 11C9.58333 11 9.22917 11.1458 8.9375 11.4375C8.64583 11.7292 8.5 12.0833 8.5 12.5C8.5 12.9167 8.64583 13.2708 8.9375 13.5625C9.22917 13.8542 9.58333 14 10 14ZM5.5 16.5V8.5V16.5ZM5.5 18C5.08333 18 4.72917 17.8542 4.4375 17.5625C4.14583 17.2708 4 16.9167 4 16.5V8.5C4 8.08333 4.14583 7.72917 4.4375 7.4375C4.72917 7.14583 5.08333 7 5.5 7H11V5C11 3.88889 11.3889 2.94444 12.1667 2.16667C12.9444 1.38889 13.8889 1 15 1C16.1111 1 17.0556 1.38889 17.8333 2.16667C18.6111 2.94444 19 3.88889 19 5H17.5C17.5 4.30556 17.2569 3.71528 16.7708 3.22917C16.2847 2.74306 15.6944 2.5 15 2.5C14.3056 2.5 13.7153 2.74306 13.2292 3.22917C12.7431 3.71528 12.5 4.30556 12.5 5V7H14.5C14.9167 7 15.2708 7.14583 15.5625 7.4375C15.8542 7.72917 16 8.08333 16 8.5V16.5C16 16.9167 15.8542 17.2708 15.5625 17.5625C15.2708 17.8542 14.9167 18 14.5 18H5.5Z" fill="black"/>
</svg>
