<?xml version="1.0" encoding="UTF-8" standalone="no"?>
<!-- Created with Inkscape (http://www.inkscape.org/) -->

<svg
   width="16"
   height="16"
   viewBox="0 0 4.2333333 4.2333332"
   version="1.1"
   id="svg652"
   inkscape:version="1.2.1 (9c6d41e4, 2022-07-14)"
   sodipodi:docname="medium_16.svg"
   xmlns:inkscape="http://www.inkscape.org/namespaces/inkscape"
   xmlns:sodipodi="http://sodipodi.sourceforge.net/DTD/sodipodi-0.dtd"
   xmlns="http://www.w3.org/2000/svg"
   xmlns:svg="http://www.w3.org/2000/svg">
  <sodipodi:namedview
     id="namedview654"
     pagecolor="#ffffff"
     bordercolor="#000000"
     borderopacity="0.25"
     inkscape:showpageshadow="2"
     inkscape:pageopacity="0.0"
     inkscape:pagecheckerboard="0"
     inkscape:deskcolor="#d1d1d1"
     inkscape:document-units="mm"
     showgrid="false"
     inkscape:zoom="7.5329791"
     inkscape:cx="18.053946"
     inkscape:cy="10.08897"
     inkscape:window-width="1792"
     inkscape:window-height="1120"
     inkscape:window-x="0"
     inkscape:window-y="166"
     inkscape:window-maximized="0"
     inkscape:current-layer="g222" />
  <defs
     id="defs649" />
  <g
     inkscape:label="Layer 1"
     inkscape:groupmode="layer"
     id="layer1">
    <g
       style="fill:#000000"
       id="g222"
       transform="matrix(0.26458333,0,0,0.26458333,0.11557237,0.27805135)">
      <g
         id="g4783"
         transform="translate(-0.06804886,-0.80090265)">
        <path
           style="fill:#212121"
           inkscape:connector-curvature="0"
           id="path4787"
           d="M 13.526,6.25 H 12.0523 V 5.5 c 0,-0.414 -0.33011,-0.75 -0.73684,-0.75 H 9.84176 V 4 c 0,-0.414 -0.33011,-0.75 -0.73684,-0.75 H 8.36808 V 1.75 C 8.36808,1.423 8.16029,1.153 7.87366,1.0495 7.81987,1.021 7.74913,1 7.63124,1 c -3.6628,0 -6.6316,3.0218 -6.6316,6.75 0,3.7275 2.9687,6.75 6.6316,6.75 3.6629,0 6.6316,-3.0225 6.6316,-6.75 V 7 c 0,-0.414 -0.3301,-0.75 -0.73684,-0.75 z M 3.5786,8.5 C 2.96784,8.5 2.4733,7.99667 2.4733,7.375 2.4733,6.75333 2.9678,6.25 3.5786,6.25 4.1894,6.25 4.6839,6.75333 4.6839,7.375 4.6839,7.99667 4.1894,8.5 3.5786,8.5 Z M 4.6839,4.375 c 0,-0.62175 0.49516,-1.125 1.1053,-1.125 0.61084,0 1.1053,0.50325 1.1053,1.125 C 6.8945,4.996 6.40008,5.5 5.7892,5.5 5.17909,5.5 4.6839,4.996 4.6839,4.375 Z M 6.8944,13 c -0.61059,0 -1.1053,-0.50334 -1.1053,-1.1246 0,-0.62129 0.49467,-1.1254 1.1053,-1.1254 0.61063,0 1.1053,0.50409 1.1053,1.1254 C 7.9997,12.49668 7.50503,13 6.8944,13 Z M 7.26282,9.25 C 6.65271,9.25 6.15752,8.746 6.15752,8.125 6.15752,7.504 6.65268,7 7.26282,7 c 0.61014,0 1.1053,0.504 1.1053,1.125 0,0.621 -0.49516,1.125 -1.1053,1.125 z m 3.6842,1.5 c -0.6101,0 -1.1053,-0.504 -1.1053,-1.125 0,-0.621 0.49516,-1.125 1.1053,-1.125 0.61011,0 1.1053,0.504 1.1053,1.125 0,0.621 -0.49516,1.125 -1.1053,1.125 z" />
      </g>
    </g>
  </g>
</svg>
