<?xml version="1.0" encoding="UTF-8" standalone="no"?>
<!-- Created with Inkscape (http://www.inkscape.org/) -->

<svg
   width="16"
   height="16"
   viewBox="0 0 4.2333333 4.2333332"
   version="1.1"
   id="svg652"
   inkscape:version="1.2.1 (9c6d41e4, 2022-07-14)"
   sodipodi:docname="medium_30.svg"
   xmlns:inkscape="http://www.inkscape.org/namespaces/inkscape"
   xmlns:sodipodi="http://sodipodi.sourceforge.net/DTD/sodipodi-0.dtd"
   xmlns:xlink="http://www.w3.org/1999/xlink"
   xmlns="http://www.w3.org/2000/svg"
   xmlns:svg="http://www.w3.org/2000/svg">
  <sodipodi:namedview
     id="namedview654"
     pagecolor="#ffffff"
     bordercolor="#000000"
     borderopacity="0.25"
     inkscape:showpageshadow="2"
     inkscape:pageopacity="0.0"
     inkscape:pagecheckerboard="0"
     inkscape:deskcolor="#d1d1d1"
     inkscape:document-units="mm"
     showgrid="false"
     inkscape:zoom="7.5329791"
     inkscape:cx="18.053946"
     inkscape:cy="10.08897"
     inkscape:window-width="1792"
     inkscape:window-height="1120"
     inkscape:window-x="0"
     inkscape:window-y="166"
     inkscape:window-maximized="0"
     inkscape:current-layer="g222" />
  <defs
     id="defs649">
    <mask
       id="path4229-9-path4231-2-mask">
      <rect
         y="0"
         x="0"
         id="rect9010"
         style="fill:#ffffff"
         height="10"
         width="10" />
      <path
         style="stroke:#000000"
         inkscape:connector-curvature="0"
         id="path4229-9"
         d="m 23,3 4,4"
         transform="translate(-20)" />
      <path
         style="stroke:#000000"
         inkscape:connector-curvature="0"
         id="path4231-2"
         d="M 27,3 23,7"
         transform="translate(-20)" />
    </mask>
    <linearGradient
       id="sprite6_b-6">
      <stop
         stop-color="#d7687d"
         offset="0"
         id="stop4236-2" />
      <stop
         stop-color="#b21402"
         offset="1"
         id="stop4238-6" />
    </linearGradient>
    <linearGradient
       xlink:href="#sprite6_b-6"
       gradientUnits="userSpaceOnUse"
       gradientTransform="matrix(0,-0.41667,-0.41667,0,25,10)"
       x2="24"
       id="linearGradient3263" />
  </defs>
  <g
     inkscape:label="Layer 1"
     inkscape:groupmode="layer"
     id="layer1">
    <g
       style="fill:#000000"
       id="g222"
       transform="matrix(0.26458333,0,0,0.26458333,0.11557237,0.27805135)">
      <g
         id="g4841"
         transform="translate(1.0631911,0.44909735)">
        <path
           style="fill:#9f9f9f"
           inkscape:connector-curvature="0"
           id="path4845"
           d="m 160,102.5 c 0,3.59 2.91,6.5 6.5,6.5 3.59,0 6.5,-2.91 6.5,-6.5 0,-3.59 -2.91,-6.5 -6.5,-6.5 -3.59,0 -6.5,2.91 -6.5,6.5"
           transform="translate(-160,-96)" />
        <path
           style="fill-opacity:0.36"
           inkscape:connector-curvature="0"
           id="path4847"
           d="m 170,100.43 -0.93,-0.93 -2.57,2.57 -2.57,-2.57 -0.93,0.93 2.57,2.57 -2.57,2.57 0.93,0.93 2.57,-2.57 2.57,2.57 0.93,-0.93 -2.57,-2.57 z"
           transform="translate(-160,-96)" />
        <path
           style="fill:#ffffff"
           inkscape:connector-curvature="0"
           id="path4849"
           d="M 170,99.93 169.07,99 166.5,101.57 163.93,99 163,99.93 l 2.57,2.57 -2.57,2.57 0.93,0.93 2.57,-2.57 2.57,2.57 0.93,-0.93 -2.57,-2.57 z"
           transform="translate(-160,-96)" />
      </g>
    </g>
  </g>
</svg>
