<?xml version="1.0" encoding="UTF-8" standalone="no"?>
<!-- Created with Inkscape (http://www.inkscape.org/) -->

<svg
   width="16"
   height="16"
   viewBox="0 0 4.2333333 4.2333332"
   version="1.1"
   id="svg652"
   inkscape:version="1.2.1 (9c6d41e4, 2022-07-14)"
   sodipodi:docname="medium_28.svg"
   xmlns:inkscape="http://www.inkscape.org/namespaces/inkscape"
   xmlns:sodipodi="http://sodipodi.sourceforge.net/DTD/sodipodi-0.dtd"
   xmlns:xlink="http://www.w3.org/1999/xlink"
   xmlns="http://www.w3.org/2000/svg"
   xmlns:svg="http://www.w3.org/2000/svg">
  <sodipodi:namedview
     id="namedview654"
     pagecolor="#ffffff"
     bordercolor="#000000"
     borderopacity="0.25"
     inkscape:showpageshadow="2"
     inkscape:pageopacity="0.0"
     inkscape:pagecheckerboard="0"
     inkscape:deskcolor="#d1d1d1"
     inkscape:document-units="mm"
     showgrid="false"
     inkscape:zoom="7.5329791"
     inkscape:cx="18.053946"
     inkscape:cy="10.08897"
     inkscape:window-width="1792"
     inkscape:window-height="1120"
     inkscape:window-x="0"
     inkscape:window-y="166"
     inkscape:window-maximized="0"
     inkscape:current-layer="g222" />
  <defs
     id="defs649">
    <mask
       id="path4229-9-path4231-2-mask">
      <rect
         y="0"
         x="0"
         id="rect9010"
         style="fill:#ffffff"
         height="10"
         width="10" />
      <path
         style="stroke:#000000"
         inkscape:connector-curvature="0"
         id="path4229-9"
         d="m 23,3 4,4"
         transform="translate(-20)" />
      <path
         style="stroke:#000000"
         inkscape:connector-curvature="0"
         id="path4231-2"
         d="M 27,3 23,7"
         transform="translate(-20)" />
    </mask>
    <linearGradient
       id="sprite6_b-6">
      <stop
         stop-color="#d7687d"
         offset="0"
         id="stop4236-2" />
      <stop
         stop-color="#b21402"
         offset="1"
         id="stop4238-6" />
    </linearGradient>
    <linearGradient
       xlink:href="#sprite6_b-6"
       gradientUnits="userSpaceOnUse"
       gradientTransform="matrix(0,-0.41667,-0.41667,0,25,10)"
       x2="24"
       id="linearGradient3263" />
  </defs>
  <g
     inkscape:label="Layer 1"
     inkscape:groupmode="layer"
     id="layer1">
    <g
       style="fill:#000000"
       id="g222"
       transform="matrix(0.26458333,0,0,0.26458333,0.11557237,0.27805135)">
      <g
         transform="translate(-0.43680886,-1.0509027)"
         id="g233"
         style="fill:#000000">
        <path
           d="M 8,0.5 C 3.86,0.5 0.5,3.86 0.5,8 c 0,4.14 3.36,7.5 7.5,7.5 4.14,0 7.5,-3.36 7.5,-7.5 C 15.5,3.86 12.14,0.5 8,0.5 Z M 8,14 C 4.685,14 2,11.315 2,8 2,6.6125 2.4725,5.3375 3.2675,4.325 l 8.4075,8.4075 C 10.6625,13.5275 9.3875,14 8,14 Z M 12.7325,11.675 4.325,3.2675 C 5.3375,2.4725 6.6125,2 8,2 c 3.315,0 6,2.685 6,6 0,1.3875 -0.4725,2.6625 -1.2675,3.675 z"
           id="path220-3" />
      </g>
    </g>
  </g>
</svg>
