<?xml version="1.0" encoding="UTF-8" standalone="no"?>
<!-- Created with Inkscape (http://www.inkscape.org/) -->

<svg
   width="16"
   height="16"
   viewBox="0 0 4.2333333 4.2333332"
   version="1.1"
   id="svg652"
   inkscape:version="1.2.1 (9c6d41e4, 2022-07-14)"
   sodipodi:docname="medium_23.svg"
   xmlns:inkscape="http://www.inkscape.org/namespaces/inkscape"
   xmlns:sodipodi="http://sodipodi.sourceforge.net/DTD/sodipodi-0.dtd"
   xmlns="http://www.w3.org/2000/svg"
   xmlns:svg="http://www.w3.org/2000/svg">
  <sodipodi:namedview
     id="namedview654"
     pagecolor="#ffffff"
     bordercolor="#000000"
     borderopacity="0.25"
     inkscape:showpageshadow="2"
     inkscape:pageopacity="0.0"
     inkscape:pagecheckerboard="0"
     inkscape:deskcolor="#d1d1d1"
     inkscape:document-units="mm"
     showgrid="false"
     inkscape:zoom="7.5329791"
     inkscape:cx="18.053946"
     inkscape:cy="10.08897"
     inkscape:window-width="1792"
     inkscape:window-height="1120"
     inkscape:window-x="0"
     inkscape:window-y="166"
     inkscape:window-maximized="0"
     inkscape:current-layer="g222" />
  <defs
     id="defs649" />
  <g
     inkscape:label="Layer 1"
     inkscape:groupmode="layer"
     id="layer1">
    <g
       style="fill:#000000"
       id="g222"
       transform="matrix(0.26458333,0,0,0.26458333,0.11557237,0.27805135)">
      <g
         id="g4813"
         transform="translate(-0.93679886,-1.5508827)">
        <path
           style="fill:#212121"
           inkscape:connector-curvature="0"
           id="path4817"
           d="M 2,3.999 C 2,3.44729 2.45098,3.00004 2.99078,3.00004 h 5.0092 v 3 h -6 v -2.001 z M 2,11 h 6 v 3 H 2.9908 C 2.44361,14 2.00002,13.55734 2.00002,13.00104 v -2.001 z M 2,7 h 6 v 3 H 2 Z M 9,3 h 5.0092 c 0.54719,0 0.99078,0.44266 0.99078,0.99896 v 2.001 h -6 v -3 z m 0,8 h 6 v 2.001 c 0,0.55171 -0.45098,0.99896 -0.99078,0.99896 h -5.0092 v -3 z M 9,7 h 6 v 3 H 9 Z" />
      </g>
    </g>
  </g>
</svg>
