<?xml version="1.0" encoding="UTF-8" standalone="no"?>
<!-- Created with Inkscape (http://www.inkscape.org/) -->

<svg
   width="16"
   height="16"
   viewBox="0 0 4.2333333 4.2333332"
   version="1.1"
   id="svg652"
   inkscape:version="1.2.1 (9c6d41e4, 2022-07-14)"
   sodipodi:docname="medium_35.svg"
   xmlns:inkscape="http://www.inkscape.org/namespaces/inkscape"
   xmlns:sodipodi="http://sodipodi.sourceforge.net/DTD/sodipodi-0.dtd"
   xmlns:xlink="http://www.w3.org/1999/xlink"
   xmlns="http://www.w3.org/2000/svg"
   xmlns:svg="http://www.w3.org/2000/svg">
  <sodipodi:namedview
     id="namedview654"
     pagecolor="#ffffff"
     bordercolor="#000000"
     borderopacity="0.25"
     inkscape:showpageshadow="2"
     inkscape:pageopacity="0.0"
     inkscape:pagecheckerboard="0"
     inkscape:deskcolor="#d1d1d1"
     inkscape:document-units="mm"
     showgrid="false"
     inkscape:zoom="7.5329791"
     inkscape:cx="18.053946"
     inkscape:cy="10.08897"
     inkscape:window-width="1792"
     inkscape:window-height="1120"
     inkscape:window-x="0"
     inkscape:window-y="166"
     inkscape:window-maximized="0"
     inkscape:current-layer="g222" />
  <defs
     id="defs649">
    <mask
       id="path4229-9-path4231-2-mask">
      <rect
         y="0"
         x="0"
         id="rect9010"
         style="fill:#ffffff"
         height="10"
         width="10" />
      <path
         style="stroke:#000000"
         inkscape:connector-curvature="0"
         id="path4229-9"
         d="m 23,3 4,4"
         transform="translate(-20)" />
      <path
         style="stroke:#000000"
         inkscape:connector-curvature="0"
         id="path4231-2"
         d="M 27,3 23,7"
         transform="translate(-20)" />
    </mask>
    <linearGradient
       id="sprite6_b-6">
      <stop
         stop-color="#d7687d"
         offset="0"
         id="stop4236-2" />
      <stop
         stop-color="#b21402"
         offset="1"
         id="stop4238-6" />
    </linearGradient>
    <linearGradient
       xlink:href="#sprite6_b-6"
       gradientUnits="userSpaceOnUse"
       gradientTransform="matrix(0,-0.41667,-0.41667,0,25,10)"
       x2="24"
       id="linearGradient3263" />
    <linearGradient
       xlink:href="#sprite6_b-6"
       gradientUnits="userSpaceOnUse"
       gradientTransform="matrix(0,-0.58333,-0.58333,0,118,110)"
       x2="24"
       id="sprite12_a" />
    <linearGradient
       xlink:href="#sprite6_b-6"
       gradientUnits="userSpaceOnUse"
       gradientTransform="matrix(0,-0.58333,-0.58333,0,118,110)"
       x2="24"
       id="linearGradient2851" />
    <mask
       id="path4287-3-mask">
      <rect
         y="0"
         x="0"
         id="rect8997"
         style="fill:#ffffff"
         height="10"
         width="10" />
      <path
         style="fill:#000000"
         inkscape:connector-curvature="0"
         id="path4287-3"
         d="m 83.93,2.14 c -0.03,-0.53 0.55,-0.97 1.06,-0.83 0.5,0.12 0.79,0.73 0.56,1.18 -0.2,0.44 -0.79,0.61 -1.2,0.36 C 84.09,2.71 83.93,2.43 83.93,2.14 Z m 1.7,5.46 H 86.3 V 8.13 H 83.41 V 7.6 h 0.66 V 3.99 H 83.41 V 3.46 h 2.22 z"
         transform="translate(-80)" />
    </mask>
    <linearGradient
       id="sprite9_d-9">
      <stop
         stop-color="#606eda"
         offset="0"
         id="stop4292-1" />
      <stop
         stop-color="#021db2"
         offset="1"
         id="stop4294-2" />
    </linearGradient>
  </defs>
  <g
     inkscape:label="Layer 1"
     inkscape:groupmode="layer"
     id="layer1">
    <g
       style="fill:#000000"
       id="g222"
       transform="matrix(0.26458333,0,0,0.26458333,0.11557237,0.27805135)">
      <g
         transform="translate(-0.43680886,-1.0509027)"
         id="g216"
         style="fill:#000000">
        <path
           d="M 8,0.5 C 3.86,0.5 0.5,3.86 0.5,8 c 0,4.14 3.36,7.5 7.5,7.5 4.14,0 7.5,-3.36 7.5,-7.5 C 15.5,3.86 12.14,0.5 8,0.5 Z M 8,14 C 4.6925,14 2,11.3075 2,8 2,4.6925 4.6925,2 8,2 c 3.3075,0 6,2.6925 6,6 0,3.3075 -2.6925,6 -6,6 z M 6.5,9.65 4.55,7.7 3.5,8.75 l 3,3 6,-6 -1.05,-1.05 z"
           id="path204" />
      </g>
    </g>
  </g>
</svg>
