<?xml version="1.0" encoding="UTF-8" standalone="no"?>
<!-- Created with Inkscape (http://www.inkscape.org/) -->

<svg
   width="16"
   height="16"
   viewBox="0 0 4.2333333 4.2333332"
   version="1.1"
   id="svg652"
   inkscape:version="1.2.1 (9c6d41e4, 2022-07-14)"
   sodipodi:docname="medium_25.svg"
   xmlns:inkscape="http://www.inkscape.org/namespaces/inkscape"
   xmlns:sodipodi="http://sodipodi.sourceforge.net/DTD/sodipodi-0.dtd"
   xmlns="http://www.w3.org/2000/svg"
   xmlns:svg="http://www.w3.org/2000/svg">
  <sodipodi:namedview
     id="namedview654"
     pagecolor="#ffffff"
     bordercolor="#000000"
     borderopacity="0.25"
     inkscape:showpageshadow="2"
     inkscape:pageopacity="0.0"
     inkscape:pagecheckerboard="0"
     inkscape:deskcolor="#d1d1d1"
     inkscape:document-units="mm"
     showgrid="false"
     inkscape:zoom="7.5329791"
     inkscape:cx="18.053946"
     inkscape:cy="10.08897"
     inkscape:window-width="1792"
     inkscape:window-height="1120"
     inkscape:window-x="0"
     inkscape:window-y="166"
     inkscape:window-maximized="0"
     inkscape:current-layer="g222" />
  <defs
     id="defs649" />
  <g
     inkscape:label="Layer 1"
     inkscape:groupmode="layer"
     id="layer1">
    <g
       style="fill:#000000"
       id="g222"
       transform="matrix(0.26458333,0,0,0.26458333,0.11557237,0.27805135)">
      <g
         id="g4825"
         transform="translate(1.0631911,-0.55090265)">
        <g
           id="g4829"
           transform="translate(-76,-24)">
          <circle
             style="fill:#009802"
             id="circle4831"
             r="2.5"
             cy="11.5"
             cx="10.5"
             transform="matrix(1.2,0,0,1.2,72.4,21.2)" />
          <path
             inkscape:connector-curvature="0"
             id="path4833"
             d="m 78,25 c -0.54399,0 -1,0.45026 -1,1 v 8 c 0,0.53973 0.44936,1 1,1 h 3.0312 c -0.02335,-0.1633 -0.03125,-0.33024 -0.03125,-0.5 0,-0.16976 0.0079,-0.3367 0.03125,-0.5 H 78 v -8 h 3 v 3 h 3 v 1.5 c 0.1633,-0.02335 0.33024,0 0.5,0 0.16976,0 0.3367,-0.02335 0.5,0 V 28 l -3,-3 z m 4,1 2,2 h -2 z" />
        </g>
      </g>
    </g>
  </g>
</svg>
