<?xml version="1.0" encoding="UTF-8" standalone="no"?>
<!-- Created with Inkscape (http://www.inkscape.org/) -->

<svg
   width="16"
   height="16"
   viewBox="0 0 4.2333333 4.2333332"
   version="1.1"
   id="svg652"
   inkscape:version="1.2.1 (9c6d41e4, 2022-07-14)"
   sodipodi:docname="medium_34.svg"
   xmlns:inkscape="http://www.inkscape.org/namespaces/inkscape"
   xmlns:sodipodi="http://sodipodi.sourceforge.net/DTD/sodipodi-0.dtd"
   xmlns:xlink="http://www.w3.org/1999/xlink"
   xmlns="http://www.w3.org/2000/svg"
   xmlns:svg="http://www.w3.org/2000/svg">
  <sodipodi:namedview
     id="namedview654"
     pagecolor="#ffffff"
     bordercolor="#000000"
     borderopacity="0.25"
     inkscape:showpageshadow="2"
     inkscape:pageopacity="0.0"
     inkscape:pagecheckerboard="0"
     inkscape:deskcolor="#d1d1d1"
     inkscape:document-units="mm"
     showgrid="false"
     inkscape:zoom="7.5329791"
     inkscape:cx="18.053946"
     inkscape:cy="10.08897"
     inkscape:window-width="1792"
     inkscape:window-height="1120"
     inkscape:window-x="0"
     inkscape:window-y="166"
     inkscape:window-maximized="0"
     inkscape:current-layer="g222" />
  <defs
     id="defs649">
    <mask
       id="path4229-9-path4231-2-mask">
      <rect
         y="0"
         x="0"
         id="rect9010"
         style="fill:#ffffff"
         height="10"
         width="10" />
      <path
         style="stroke:#000000"
         inkscape:connector-curvature="0"
         id="path4229-9"
         d="m 23,3 4,4"
         transform="translate(-20)" />
      <path
         style="stroke:#000000"
         inkscape:connector-curvature="0"
         id="path4231-2"
         d="M 27,3 23,7"
         transform="translate(-20)" />
    </mask>
    <linearGradient
       id="sprite6_b-6">
      <stop
         stop-color="#d7687d"
         offset="0"
         id="stop4236-2" />
      <stop
         stop-color="#b21402"
         offset="1"
         id="stop4238-6" />
    </linearGradient>
    <linearGradient
       xlink:href="#sprite6_b-6"
       gradientUnits="userSpaceOnUse"
       gradientTransform="matrix(0,-0.41667,-0.41667,0,25,10)"
       x2="24"
       id="linearGradient3263" />
    <linearGradient
       xlink:href="#sprite6_b-6"
       gradientUnits="userSpaceOnUse"
       gradientTransform="matrix(0,-0.58333,-0.58333,0,118,110)"
       x2="24"
       id="sprite12_a" />
    <linearGradient
       xlink:href="#sprite6_b-6"
       gradientUnits="userSpaceOnUse"
       gradientTransform="matrix(0,-0.58333,-0.58333,0,118,110)"
       x2="24"
       id="linearGradient2851" />
    <mask
       id="path4287-3-mask">
      <rect
         y="0"
         x="0"
         id="rect8997"
         style="fill:#ffffff"
         height="10"
         width="10" />
      <path
         style="fill:#000000"
         inkscape:connector-curvature="0"
         id="path4287-3"
         d="m 83.93,2.14 c -0.03,-0.53 0.55,-0.97 1.06,-0.83 0.5,0.12 0.79,0.73 0.56,1.18 -0.2,0.44 -0.79,0.61 -1.2,0.36 C 84.09,2.71 83.93,2.43 83.93,2.14 Z m 1.7,5.46 H 86.3 V 8.13 H 83.41 V 7.6 h 0.66 V 3.99 H 83.41 V 3.46 h 2.22 z"
         transform="translate(-80)" />
    </mask>
    <linearGradient
       id="sprite9_d-9">
      <stop
         stop-color="#606eda"
         offset="0"
         id="stop4292-1" />
      <stop
         stop-color="#021db2"
         offset="1"
         id="stop4294-2" />
    </linearGradient>
  </defs>
  <g
     inkscape:label="Layer 1"
     inkscape:groupmode="layer"
     id="layer1">
    <g
       style="fill:#000000"
       id="g222"
       transform="matrix(0.26458333,0,0,0.26458333,0.11557237,0.27805135)">
      <g
         transform="translate(-0.43680886,-1.0509027)"
         id="g374"
         style="fill:#000000">
        <path
           inkscape:connector-curvature="0"
           fill-rule="evenodd"
           clip-rule="evenodd"
           d="m 15,8 c 0,3.866 -3.134,7 -7,7 C 4.13401,15 1,11.866 1,8 1,4.13401 4.13401,1 8,1 c 3.866,0 7,3.13401 7,7 z m -5,5.6586 C 9.37444,13.8797 8.70127,14 8,14 4.68629,14 2,11.3137 2,8 2,5.77915 3.2066,3.84012 5,2.80269 v 6.4902 L 3.85355,8.14645 3.14645,8.85355 5.5,11.2071 7.85355,8.85355 7.14645,8.14645 6,9.29289 V 2.34141 C 6.62556,2.12031 7.29873,2 8,2 c 3.3137,0 6,2.68629 6,6 0,2.2208 -1.2066,4.1599 -3,5.1973 V 6.70711 L 12.1464,7.85355 12.8536,7.14645 10.5,4.79289 8.14645,7.14645 8.85355,7.85355 10,6.70711 Z"
           id="path363" />
      </g>
    </g>
  </g>
</svg>
