<?xml version="1.0" encoding="UTF-8" standalone="no"?>
<!-- Created with Inkscape (http://www.inkscape.org/) -->

<svg
   width="16"
   height="16"
   viewBox="0 0 4.2333333 4.2333332"
   version="1.1"
   id="svg652"
   inkscape:version="1.2.1 (9c6d41e4, 2022-07-14)"
   sodipodi:docname="medium_27.svg"
   xmlns:inkscape="http://www.inkscape.org/namespaces/inkscape"
   xmlns:sodipodi="http://sodipodi.sourceforge.net/DTD/sodipodi-0.dtd"
   xmlns:xlink="http://www.w3.org/1999/xlink"
   xmlns="http://www.w3.org/2000/svg"
   xmlns:svg="http://www.w3.org/2000/svg">
  <sodipodi:namedview
     id="namedview654"
     pagecolor="#ffffff"
     bordercolor="#000000"
     borderopacity="0.25"
     inkscape:showpageshadow="2"
     inkscape:pageopacity="0.0"
     inkscape:pagecheckerboard="0"
     inkscape:deskcolor="#d1d1d1"
     inkscape:document-units="mm"
     showgrid="false"
     inkscape:zoom="7.5329791"
     inkscape:cx="18.053946"
     inkscape:cy="10.08897"
     inkscape:window-width="1792"
     inkscape:window-height="1120"
     inkscape:window-x="0"
     inkscape:window-y="166"
     inkscape:window-maximized="0"
     inkscape:current-layer="g222" />
  <defs
     id="defs649">
    <mask
       id="path4229-9-path4231-2-mask">
      <rect
         y="0"
         x="0"
         id="rect9010"
         style="fill:#ffffff"
         height="10"
         width="10" />
      <path
         style="stroke:#000000"
         inkscape:connector-curvature="0"
         id="path4229-9"
         d="m 23,3 4,4"
         transform="translate(-20)" />
      <path
         style="stroke:#000000"
         inkscape:connector-curvature="0"
         id="path4231-2"
         d="M 27,3 23,7"
         transform="translate(-20)" />
    </mask>
    <linearGradient
       id="sprite6_b-6">
      <stop
         stop-color="#d7687d"
         offset="0"
         id="stop4236-2" />
      <stop
         stop-color="#b21402"
         offset="1"
         id="stop4238-6" />
    </linearGradient>
    <linearGradient
       xlink:href="#sprite6_b-6"
       gradientUnits="userSpaceOnUse"
       gradientTransform="matrix(0,-0.41667,-0.41667,0,25,10)"
       x2="24"
       id="linearGradient3263" />
  </defs>
  <g
     inkscape:label="Layer 1"
     inkscape:groupmode="layer"
     id="layer1">
    <g
       style="fill:#000000"
       id="g222"
       transform="matrix(0.26458333,0,0,0.26458333,0.11557237,0.27805135)">
      <g
         transform="translate(-0.43680886,-1.0509027)"
         id="g361"
         style="fill:#000000">
        <path
           inkscape:connector-curvature="0"
           d="M 5.14645,5.64645 2.79289,8 5.14645,10.3536 5.85355,9.64645 4.20711,8 5.85355,6.35355 Z"
           id="path341" />
        <path
           inkscape:connector-curvature="0"
           d="m 9.48507,4.12127 -2,8.00003 -0.97014,-0.2426 2,-7.99997 z"
           id="path343" />
        <path
           inkscape:connector-curvature="0"
           d="M 10.8536,5.64645 13.2071,8 10.8536,10.3536 10.1464,9.64645 11.7929,8 10.1464,6.35355 Z"
           id="path345" />
        <path
           inkscape:connector-curvature="0"
           fill-rule="evenodd"
           clip-rule="evenodd"
           d="m 15,8 c 0,3.866 -3.134,7 -7,7 C 4.13401,15 1,11.866 1,8 1,4.13401 4.13401,1 8,1 c 3.866,0 7,3.13401 7,7 z m -1,0 c 0,3.3137 -2.6863,6 -6,6 C 4.68629,14 2,11.3137 2,8 2,4.68629 4.68629,2 8,2 c 3.3137,0 6,2.68629 6,6 z"
           id="path347" />
      </g>
    </g>
  </g>
</svg>
