<svg width="20" height="20" viewBox="0 0 20 20" fill="none" xmlns="http://www.w3.org/2000/svg">
<path d="M9.99999 8.33335C7.47499 8.33335 5.18333 9.35835 3.53333 11.0167L5.29999 12.7833C6.50833 11.575 8.16666 10.825 9.99999 10.825C10.2917 10.825 10.575 10.85 10.8583 10.8833C11.6917 10.0417 12.775 9.45835 13.9917 9.25001C12.7833 8.65835 11.4333 8.32501 9.99999 8.32501V8.33335Z" fill="black"/>
<path d="M9.39998 13.3917C8.49165 13.525 7.68332 13.9334 7.06665 14.55L9.54998 17.0334C9.30832 16.4 9.17498 15.7084 9.17498 14.9917C9.17498 14.4334 9.25832 13.9 9.39998 13.3834V13.3917Z" fill="black"/>
<path d="M18.2333 9.25831L20 7.48331C17.4417 4.91665 13.9083 3.33331 10 3.33331C6.09167 3.33331 2.55833 4.91665 0 7.48331L1.76667 9.25831C3.875 7.14165 6.78333 5.83331 10 5.83331C13.2167 5.83331 16.125 7.14165 18.2333 9.25831Z" fill="black"/>
<path d="M18.1916 12.1916L16.9833 12.6C16.7166 12.375 16.4166 12.2 16.0833 12.075L15.8333 10.8333H14.1666L13.9166 12.075C13.5833 12.2 13.2833 12.375 13.0166 12.6L11.8083 12.1916L10.975 13.6333L11.925 14.4666C11.8583 14.8833 11.8583 15.1 11.925 15.5166L10.975 16.35L11.8083 17.7916L13.0166 17.3833C13.2833 17.6083 13.5833 17.7833 13.9166 17.9083L14.1666 19.15H15.8333L16.0833 17.9083C16.4166 17.7833 16.7166 17.6083 16.9833 17.3833L18.1916 17.7916L19.025 16.35L18.075 15.5166C18.1416 15.1 18.1416 14.8833 18.075 14.4666L19.025 13.6333L18.1916 12.1916ZM15 16.6666C14.0833 16.6666 13.3333 15.9166 13.3333 15C13.3333 14.0833 14.0833 13.3333 15 13.3333C15.9166 13.3333 16.6666 14.0833 16.6666 15C16.6666 15.9166 15.9166 16.6666 15 16.6666Z" fill="black"/>
</svg>
