<?xml version="1.0" encoding="utf-8"?>
<svg viewBox="146 124 16 16" width="16" height="16" xmlns="http://www.w3.org/2000/svg">
  <g transform="matrix(1, 0, 0, 1, 138, 120)" id="g340">
    <g id="g344" style="fill:none">
      <path transform="translate(8,4)" d="M 0,0 H 16 V 16 H 0 Z" id="path346" style="opacity:0.5"/>
      <path transform="translate(8,4)" d="M 6,14 H 3.5 C 2.5,14 2,13.5 2,12.5 v -9 C 2,2.5 2.5,2 3.5,2 h 9 C 14,2 14,3.4678 14,3.5 V 6 H 13 V 3 H 3 v 10 h 3 z m 9,-5 -3,2 3,3 -1,1 -3,-3 -2,3 -2,-8 z" id="path348" style="fill:#000000"/>
    </g>
  </g>
</svg>