<svg width="20" height="20" viewBox="0 0 20 20" fill="none" xmlns="http://www.w3.org/2000/svg">
<path d="M5 12H6.979L11.854 7.125C11.9653 7.01367 12.021 6.89567 12.021 6.771C12.021 6.64567 11.9653 6.52767 11.854 6.417L10.562 5.146C10.4513 5.03467 10.3333 4.979 10.208 4.979C10.0833 4.979 9.96533 5.03467 9.854 5.146L5 10.021V12ZM9.104 12H15V10.5H10.604L9.104 12ZM2 18V3.5C2 3.08333 2.146 2.72933 2.438 2.438C2.72933 2.146 3.08333 2 3.5 2H16.5C16.9167 2 17.2707 2.146 17.562 2.438C17.854 2.72933 18 3.08333 18 3.5V13.5C18 13.9167 17.854 14.2707 17.562 14.562C17.2707 14.854 16.9167 15 16.5 15H5L2 18ZM3.5 13.5H16.5V3.5H3.5V13.5Z" fill="black"/>
</svg>
