<svg width="18" height="18" viewBox="0 0 18 18" fill="none" xmlns="http://www.w3.org/2000/svg">
<path d="M4.05001 15.3C3.67501 15.3 3.35641 15.1686 3.09421 14.9058C2.83141 14.6436 2.70001 14.325 2.70001 13.95H4.05001V15.3ZM2.70001 12.4875V11.1375H4.05001V12.4875H2.70001ZM2.70001 9.67495V8.32495H4.05001V9.67495H2.70001ZM2.70001 6.86245V5.51245H4.05001V6.86245H2.70001ZM2.70001 4.04995C2.70001 3.67495 2.83141 3.35635 3.09421 3.09415C3.35641 2.83135 3.67501 2.69995 4.05001 2.69995V4.04995H2.70001ZM5.51251 15.3V13.95H6.86251V15.3H5.51251ZM5.51251 4.04995V2.69995H6.86251V4.04995H5.51251ZM8.10001 15.3V8.09995H15.3V9.44995H10.4058L15.3 14.3442L14.3442 15.3L9.45001 10.4058V15.3H8.10001ZM8.32501 4.04995V2.69995H9.67501V4.04995H8.32501ZM11.1375 4.04995V2.69995H12.4875V4.04995H11.1375ZM13.95 6.74995V5.39995H15.3V6.74995H13.95ZM13.95 4.04995V2.69995C14.325 2.69995 14.6436 2.83135 14.9058 3.09415C15.1686 3.35635 15.3 3.67495 15.3 4.04995H13.95Z" fill="black"/>
</svg>
