<svg width="18" height="18" viewBox="0 0 18 18" fill="none" xmlns="http://www.w3.org/2000/svg">
<path d="M4.04998 14.4V13.05H5.43778C4.87498 12.5502 4.42798 11.9532 4.09678 11.259C3.76558 10.5654 3.59998 9.81238 3.59998 8.99998C3.59998 7.73758 3.98128 6.62818 4.74388 5.67178C5.50648 4.71538 6.47518 4.08718 7.64998 3.78718V5.19388C6.86278 5.48128 6.21598 5.96548 5.70958 6.64648C5.20318 7.32808 4.94998 8.11258 4.94998 8.99998C4.94998 9.59998 5.07178 10.1562 5.31538 10.6686C5.55898 11.181 5.88718 11.6184 6.29998 11.9808V10.8H7.64998V14.4H4.04998ZM10.35 14.2128V12.8061C11.1372 12.5187 11.784 12.0345 12.2904 11.3535C12.7968 10.6719 13.05 9.88738 13.05 8.99998C13.05 8.39998 12.9282 7.84378 12.6846 7.33138C12.441 6.81898 12.1128 6.38158 11.7 6.01918V7.19998H10.35V3.59998H13.95V4.94998H12.5622C13.125 5.44978 13.572 6.04678 13.9032 6.74098C14.2344 7.43458 14.4 8.18758 14.4 8.99998C14.4 10.2624 14.0187 11.3718 13.2561 12.3282C12.4935 13.2846 11.5248 13.9128 10.35 14.2128Z" fill="black"/>
</svg>
