<svg xmlns="http://www.w3.org/2000/svg" xml:space="preserve" width="16" height="16" viewBox="0 0 489.059 489.059"><path d="M481.211 443.368 224.809 186.946l55.817-17.364c3.88-1.196 6.736-4.509 7.38-8.528a10.636 10.636 0 0 0-4.383-10.385l-56.798-40.165a36.358 36.358 0 0 1-15.417-30.172l.916-69.519c.051-4.06-2.23-7.796-5.837-9.647a10.637 10.637 0 0 0-11.225.962l-55.73 41.584a36.383 36.383 0 0 1-33.439 5.294L40.246 26.678a10.712 10.712 0 0 0-11.007 2.55c-2.868 2.872-3.847 7.138-2.563 10.987l22.376 65.862c3.8 11.343 1.828 23.837-5.325 33.438l-41.596 55.73c-2.418 3.272-2.819 7.628-.977 11.236a10.72 10.72 0 0 0 9.688 5.84l69.502-.898a36.39 36.39 0 0 1 30.174 15.366l40.149 56.807c2.373 3.32 6.401 5.021 10.412 4.387a10.645 10.645 0 0 0 8.518-7.378l17.375-55.805 256.389 256.422a26.749 26.749 0 0 0 18.908 7.836c6.885 0 13.73-2.615 18.943-7.836 10.459-10.45 10.459-27.396-.001-37.854z"/></svg>